  0
SECTION
  2
HEADER
  9
$ACADVER
  1
AC1015
  9
$ACADMAINTVER
 70
     6
  9
$DWGCODEPAGE
  3
ANSI_1252
  9
$INSBASE
 10
0.0
 20
0.0
 30
0.0
  9
$EXTMIN
 10
-0.0010676007
 20
-14.3654738503
 30
0.0
  9
$EXTMAX
 10
205.2335452414
 20
14.3654738503
 30
0.0
  9
$LIMMIN
 10
0.0
 20
0.0
  9
$LIMMAX
 10
420.0
 20
297.0
  9
$ORTHOMODE
 70
     0
  9
$REGENMODE
 70
     1
  9
$FILLMODE
 70
     1
  9
$QTEXTMODE
 70
     0
  9
$MIRRTEXT
 70
     1
  9
$LTSCALE
 40
1.0
  9
$ATTMODE
 70
     1
  9
$TEXTSIZE
 40
3.5
  9
$TRACEWID
 40
1.0
  9
$TEXTSTYLE
  7
Standard
  9
$CLAYER
  8
0
  9
$CELTYPE
  6
ByLayer
  9
$CECOLOR
 62
   256
  9
$CELTSCALE
 40
1.0
  9
$DISPSILH
 70
     0
  9
$DIMSCALE
 40
1.0
  9
$DIMASZ
 40
3.556
  9
$DIMEXO
 40
0.0
  9
$DIMDLI
 40
3.75
  9
$DIMRND
 40
0.0
  9
$DIMDLE
 40
0.0
  9
$DIMEXE
 40
1.0
  9
$DIMTP
 40
0.0
  9
$DIMTM
 40
0.0
  9
$DIMTXT
 40
3.5
  9
$DIMCEN
 40
2.5
  9
$DIMTSZ
 40
0.0
  9
$DIMTOL
 70
     0
  9
$DIMLIM
 70
     0
  9
$DIMTIH
 70
     1
  9
$DIMTOH
 70
     1
  9
$DIMSE1
 70
     0
  9
$DIMSE2
 70
     0
  9
$DIMTAD
 70
     1
  9
$DIMZIN
 70
     1
  9
$DIMBLK
  1

  9
$DIMASO
 70
     1
  9
$DIMSHO
 70
     1
  9
$DIMPOST
  1

  9
$DIMAPOST
  1

  9
$DIMALT
 70
     0
  9
$DIMALTD
 70
     3
  9
$DIMALTF
 40
0.0393700787
  9
$DIMLFAC
 40
1.0
  9
$DIMTOFL
 70
     1
  9
$DIMTVP
 40
0.0
  9
$DIMTIX
 70
     0
  9
$DIMSOXD
 70
     0
  9
$DIMSAH
 70
     0
  9
$DIMBLK1
  1

  9
$DIMBLK2
  1

  9
$DIMSTYLE
  2
ISO-25
  9
$DIMCLRD
 70
     0
  9
$DIMCLRE
 70
     0
  9
$DIMCLRT
 70
     0
  9
$DIMTFAC
 40
1.0
  9
$DIMGAP
 40
1.524
  9
$DIMJUST
 70
     0
  9
$DIMSD1
 70
     0
  9
$DIMSD2
 70
     0
  9
$DIMTOLJ
 70
     0
  9
$DIMTZIN
 70
     1
  9
$DIMALTZ
 70
     0
  9
$DIMALTTZ
 70
     0
  9
$DIMUPT
 70
     0
  9
$DIMDEC
 70
     2
  9
$DIMTDEC
 70
     2
  9
$DIMALTU
 70
     2
  9
$DIMALTTD
 70
     3
  9
$DIMTXSTY
  7
Standard
  9
$DIMAUNIT
 70
     0
  9
$DIMADEC
 70
     2
  9
$DIMALTRND
 40
0.0
  9
$DIMAZIN
 70
     0
  9
$DIMDSEP
 70
    44
  9
$DIMATFIT
 70
     3
  9
$DIMFRAC
 70
     0
  9
$DIMLDRBLK
  1

  9
$DIMLUNIT
 70
     2
  9
$DIMLWD
 70
    -2
  9
$DIMLWE
 70
    -2
  9
$DIMTMOVE
 70
     0
  9
$LUNITS
 70
     2
  9
$LUPREC
 70
     2
  9
$SKETCHINC
 40
1.0
  9
$FILLETRAD
 40
0.0
  9
$AUNITS
 70
     0
  9
$AUPREC
 70
     2
  9
$MENU
  1
.
  9
$ELEVATION
 40
0.0
  9
$PELEVATION
 40
0.0
  9
$THICKNESS
 40
0.0
  9
$LIMCHECK
 70
     0
  9
$CHAMFERA
 40
0.0
  9
$CHAMFERB
 40
0.0
  9
$CHAMFERC
 40
0.0
  9
$CHAMFERD
 40
0.0
  9
$SKPOLY
 70
     0
  9
$TDCREATE
 40
2460755.880047523
  9
$TDUCREATE
 40
2460755.42171419
  9
$TDUPDATE
 40
2460755.880073392
  9
$TDUUPDATE
 40
2460755.421740058
  9
$TDINDWG
 40
0.0000000116
  9
$TDUSRTIMER
 40
0.0000000116
  9
$USRTIMER
 70
     1
  9
$ANGBASE
 50
0.0
  9
$ANGDIR
 70
     0
  9
$PDMODE
 70
     0
  9
$PDSIZE
 40
-1.0
  9
$PLINEWID
 40
0.0
  9
$SPLFRAME
 70
     0
  9
$SPLINETYPE
 70
     6
  9
$SPLINESEGS
 70
     8
  9
$HANDSEED
  5
17D
  9
$SURFTAB1
 70
     6
  9
$SURFTAB2
 70
     6
  9
$SURFTYPE
 70
     6
  9
$SURFU
 70
     6
  9
$SURFV
 70
     6
  9
$UCSBASE
  2

  9
$UCSNAME
  2

  9
$UCSORG
 10
0.0
 20
0.0
 30
0.0
  9
$UCSXDIR
 10
1.0
 20
0.0
 30
0.0
  9
$UCSYDIR
 10
0.0
 20
1.0
 30
0.0
  9
$UCSORTHOREF
  2

  9
$UCSORTHOVIEW
 70
     0
  9
$UCSORGTOP
 10
0.0
 20
0.0
 30
0.0
  9
$UCSORGBOTTOM
 10
0.0
 20
0.0
 30
0.0
  9
$UCSORGLEFT
 10
0.0
 20
0.0
 30
0.0
  9
$UCSORGRIGHT
 10
0.0
 20
0.0
 30
0.0
  9
$UCSORGFRONT
 10
0.0
 20
0.0
 30
0.0
  9
$UCSORGBACK
 10
0.0
 20
0.0
 30
0.0
  9
$PUCSBASE
  2

  9
$PUCSNAME
  2

  9
$PUCSORG
 10
0.0
 20
0.0
 30
0.0
  9
$PUCSXDIR
 10
1.0
 20
0.0
 30
0.0
  9
$PUCSYDIR
 10
0.0
 20
1.0
 30
0.0
  9
$PUCSORTHOREF
  2

  9
$PUCSORTHOVIEW
 70
     0
  9
$PUCSORGTOP
 10
0.0
 20
0.0
 30
0.0
  9
$PUCSORGBOTTOM
 10
0.0
 20
0.0
 30
0.0
  9
$PUCSORGLEFT
 10
0.0
 20
0.0
 30
0.0
  9
$PUCSORGRIGHT
 10
0.0
 20
0.0
 30
0.0
  9
$PUCSORGFRONT
 10
0.0
 20
0.0
 30
0.0
  9
$PUCSORGBACK
 10
0.0
 20
0.0
 30
0.0
  9
$USERI1
 70
     0
  9
$USERI2
 70
     0
  9
$USERI3
 70
     0
  9
$USERI4
 70
     0
  9
$USERI5
 70
     0
  9
$USERR1
 40
0.0
  9
$USERR2
 40
0.0
  9
$USERR3
 40
0.0
  9
$USERR4
 40
0.0
  9
$USERR5
 40
0.0
  9
$WORLDVIEW
 70
     1
  9
$SHADEDGE
 70
     3
  9
$SHADEDIF
 70
    70
  9
$TILEMODE
 70
     1
  9
$MAXACTVP
 70
    64
  9
$PINSBASE
 10
0.0
 20
0.0
 30
0.0
  9
$PLIMCHECK
 70
     0
  9
$PEXTMIN
 10
1.0000000000E+20
 20
1.0000000000E+20
 30
1.0000000000E+20
  9
$PEXTMAX
 10
-1.0000000000E+20
 20
-1.0000000000E+20
 30
-1.0000000000E+20
  9
$PLIMMIN
 10
0.0
 20
0.0
  9
$PLIMMAX
 10
420.0
 20
297.0
  9
$UNITMODE
 70
     0
  9
$VISRETAIN
 70
     1
  9
$PLINEGEN
 70
     0
  9
$PSLTSCALE
 70
     1
  9
$TREEDEPTH
 70
  3020
  9
$CMLSTYLE
  2
Standard
  9
$CMLJUST
 70
     0
  9
$CMLSCALE
 40
20.0
  9
$PROXYGRAPHICS
 70
     1
  9
$MEASUREMENT
 70
     1
  9
$CELWEIGHT
370
    -1
  9
$ENDCAPS
280
     0
  9
$JOINSTYLE
280
     0
  9
$LWDISPLAY
290
     1
  9
$INSUNITS
 70
     4
  9
$HYPERLINKBASE
  1

  9
$STYLESHEET
  1

  9
$XEDIT
290
     1
  9
$CEPSNTYPE
380
     0
  9
$PSTYLEMODE
290
     1
  9
$FINGERPRINTGUID
  2
{dfb3a371-89e9-405b-8b9e-2554f8a6da21}
  9
$VERSIONGUID
  2
{FAEB1C32-E019-11D5-929B-00C0DF256EC4}
  9
$EXTNAMES
290
     1
  9
$PSVPSCALE
 40
0.0
  9
$OLESTARTUP
290
     0
  0
ENDSEC
  0
SECTION
  2
CLASSES
  0
CLASS
  1
ACDBDICTIONARYWDFLT
  2
AcDbDictionaryWithDefault
  3
ObjectDBX Classes
 90
        0
280
     0
281
     0
  0
CLASS
  1
VISUALSTYLE
  2
AcDbVisualStyle
  3
ObjectDBX Classes
 90
     4095
280
     0
281
     0
  0
CLASS
  1
MATERIAL
  2
AcDbMaterial
  3
ObjectDBX Classes
 90
     1153
280
     0
281
     0
  0
CLASS
  1
SCALE
  2
AcDbScale
  3
ObjectDBX Classes
 90
     1153
280
     0
281
     0
  0
CLASS
  1
TABLESTYLE
  2
AcDbTableStyle
  3
ObjectDBX Classes
 90
     4095
280
     0
281
     0
  0
CLASS
  1
MLEADERSTYLE
  2
AcDbMLeaderStyle
  3
ACDB_MLEADERSTYLE_CLASS
 90
     4095
280
     0
281
     0
  0
CLASS
  1
SUN
  2
AcDbSun
  3
SCENEOE
 90
     1153
280
     0
281
     0
  0
CLASS
  1
ACDBPLACEHOLDER
  2
AcDbPlaceHolder
  3
ObjectDBX Classes
 90
        0
280
     0
281
     0
  0
CLASS
  1
LAYOUT
  2
AcDbLayout
  3
ObjectDBX Classes
 90
        0
280
     0
281
     0
  0
ENDSEC
  0
SECTION
  2
TABLES
  0
TABLE
  2
VPORT
  5
8
330
0
100
AcDbSymbolTable
 70
     1
  0
VPORT
  5
29
330
8
100
AcDbSymbolTableRecord
100
AcDbViewportTableRecord
  2
*Active
 70
     0
 10
0.0
 20
0.0
 11
1.0
 21
1.0
 12
102.6162388204
 22
0.0
 13
0.0
 23
0.0
 14
10.0
 24
10.0
 15
10.0
 25
10.0
 16
0.0
 26
0.0
 36
1.0
 17
0.0
 27
0.0
 37
0.0
 40
29.3055666547
 41
7.1433290325
 42
50.0
 43
0.0
 44
0.0
 50
0.0
 51
0.0
 71
     0
 72
   100
 73
     1
 74
     3
 75
     0
 76
     0
 77
     0
 78
     0
281
     0
 65
     1
110
0.0
120
0.0
130
0.0
111
1.0
121
0.0
131
0.0
112
0.0
122
1.0
132
0.0
 79
     0
146
0.0
  0
ENDTAB
  0
TABLE
  2
LTYPE
  5
5
330
0
100
AcDbSymbolTable
 70
     6
  0
LTYPE
  5
14
330
5
100
AcDbSymbolTableRecord
100
AcDbLinetypeTableRecord
  2
ByBlock
 70
     0
  3

 72
    65
 73
     0
 40
0.0
  0
LTYPE
  5
15
330
5
100
AcDbSymbolTableRecord
100
AcDbLinetypeTableRecord
  2
ByLayer
 70
     0
  3

 72
    65
 73
     0
 40
0.0
  0
LTYPE
  5
16
330
5
100
AcDbSymbolTableRecord
100
AcDbLinetypeTableRecord
  2
Continuous
 70
     0
  3
Solid line
 72
    65
 73
     0
 40
0.0
  0
LTYPE
  5
5E
330
5
100
AcDbSymbolTableRecord
100
AcDbLinetypeTableRecord
  2
HIDDEN
 70
     0
  3
Hidden __ __ __ __ __ __ __ __ __ __ __ __ __ __
 72
    65
 73
     2
 40
1.905
 49
1.27
 74
     0
 49
-0.635
 74
     0
  0
LTYPE
  5
5F
330
5
100
AcDbSymbolTableRecord
100
AcDbLinetypeTableRecord
  2
PHANTOM
 70
     0
  3
Phantom ______  __  __  ______  __  __  ______
 72
    65
 73
     6
 40
12.7
 49
6.35
 74
     0
 49
-1.27
 74
     0
 49
1.27
 74
     0
 49
-1.27
 74
     0
 49
1.27
 74
     0
 49
-1.27
 74
     0
  0
LTYPE
  5
60
330
5
100
AcDbSymbolTableRecord
100
AcDbLinetypeTableRecord
  2
CENTER
 70
     0
  3
Center ____ _ ____ _ ____ _ ____ _ ____ _ ____
 72
    65
 73
     4
 40
10.16
 49
6.35
 74
     0
 49
-1.27
 74
     0
 49
1.27
 74
     0
 49
-1.27
 74
     0
  0
LTYPE
  5
61
330
5
100
AcDbSymbolTableRecord
100
AcDbLinetypeTableRecord
  2
CENTERX2
 70
     0
  3
Center (2x) ________  __  ________  __  _____
 72
    65
 73
     4
 40
20.32
 49
12.7
 74
     0
 49
-2.54
 74
     0
 49
2.54
 74
     0
 49
-2.54
 74
     0
  0
LTYPE
  5
62
330
5
100
AcDbSymbolTableRecord
100
AcDbLinetypeTableRecord
  2
DOT2
 70
     0
  3
Dot (.5x) ........................................
 72
    65
 73
     2
 40
0.635
 49
0.0
 74
     0
 49
-0.635
 74
     0
  0
ENDTAB
  0
TABLE
  2
LAYER
  5
2
330
0
100
AcDbSymbolTable
 70
     1
  0
LAYER
  5
10
330
2
100
AcDbSymbolTableRecord
100
AcDbLayerTableRecord
  2
0
 70
     0
 62
     7
  6
Continuous
370
    -3
390
F
  0
ENDTAB
  0
TABLE
  2
STYLE
  5
3
330
0
100
AcDbSymbolTable
 70
     2
  0
STYLE
  5
11
330
3
100
AcDbSymbolTableRecord
100
AcDbTextStyleTableRecord
  2
Standard
 70
     0
 40
0.0
 41
1.0
 50
0.0
 71
     0
 42
3.5
  3
txt
  4

  0
STYLE
  5
179
330
3
100
AcDbSymbolTableRecord
100
AcDbTextStyleTableRecord
  2
SLDTEXTSTYLE0
 70
     0
 40
0.0
 41
0.7
 50
0.0
 71
     0
 42
3.5
  3
TXT
  4

  0
ENDTAB
  0
TABLE
  2
VIEW
  5
6
330
0
100
AcDbSymbolTable
 70
     0
  0
ENDTAB
  0
TABLE
  2
UCS
  5
7
330
0
100
AcDbSymbolTable
 70
     0
  0
ENDTAB
  0
TABLE
  2
APPID
  5
9
330
0
100
AcDbSymbolTable
 70
     1
  0
APPID
  5
12
330
9
100
AcDbSymbolTableRecord
100
AcDbRegAppTableRecord
  2
ACAD
 70
     0
  0
ENDTAB
  0
TABLE
  2
DIMSTYLE
  5
A
330
0
100
AcDbSymbolTable
 70
     1
100
AcDbDimStyleTable
  0
DIMSTYLE
105
27
330
A
100
AcDbSymbolTableRecord
100
AcDbDimStyleTableRecord
  2
ISO-25
 70
     0
 41
2.5
 42
0.625
 43
3.75
 44
1.25
 73
     0
 74
     0
 77
     1
 78
     8
140
2.5
141
2.5
143
0.0393700787
147
0.625
171
     3
172
     1
178
     0
271
     2
272
     2
274
     3
278
    44
283
     0
284
     8
340
11
  0
ENDTAB
  0
TABLE
  2
BLOCK_RECORD
  5
1
330
0
100
AcDbSymbolTable
 70
     1
  0
BLOCK_RECORD
  5
1F
330
1
100
AcDbSymbolTableRecord
100
AcDbBlockTableRecord
  2
*Model_Space
340
22
  0
BLOCK_RECORD
  5
1B
330
1
100
AcDbSymbolTableRecord
100
AcDbBlockTableRecord
  2
*Paper_Space
340
1E
  0
BLOCK_RECORD
  5
23
330
1
100
AcDbSymbolTableRecord
100
AcDbBlockTableRecord
  2
*Paper_Space0
340
26
  0
ENDTAB
  0
ENDSEC
  0
SECTION
  2
BLOCKS
  0
BLOCK
  5
20
330
1F
100
AcDbEntity
  8
0
100
AcDbBlockBegin
  2
*Model_Space
 70
     0
 10
0.0
 20
0.0
 30
0.0
  3
*Model_Space
  1

  0
ENDBLK
  5
21
330
1F
100
AcDbEntity
  8
0
100
AcDbBlockEnd
  0
BLOCK
  5
1C
330
1B
100
AcDbEntity
 67
     1
  8
0
100
AcDbBlockBegin
  2
*Paper_Space
 70
     0
 10
0.0
 20
0.0
 30
0.0
  3
*Paper_Space
  1

  0
ENDBLK
  5
1D
330
1B
100
AcDbEntity
 67
     1
  8
0
100
AcDbBlockEnd
  0
BLOCK
  5
24
330
23
100
AcDbEntity
  8
0
100
AcDbBlockBegin
  2
*Paper_Space0
 70
     0
 10
0.0
 20
0.0
 30
0.0
  3
*Paper_Space0
  1

  0
ENDBLK
  5
25
330
23
100
AcDbEntity
  8
0
100
AcDbBlockEnd
  0
ENDSEC
  0
SECTION
  2
ENTITIES
  0
CIRCLE
  5
63
330
1F
100
AcDbEntity
  8
0
  6
Continuous
 62
     7
370
    25
100
AcDbCircle
 10
184.965192664
 20
0.0
 30
0.0
 40
1.004221021000745
  0
SPLINE
  5
64
330
1F
100
AcDbEntity
  8
0
  6
Continuous
 62
     7
370
    25
100
AcDbSpline
210
0.0
220
0.0
230
1.0
 70
     8
 71
     3
 72
    10
 73
     6
 74
     0
 42
0.00000001
 43
0.00000001
 40
0.063029644955289
 40
0.063029644955289
 40
0.063029644955289
 40
0.063029644955289
 40
0.0668764842965997
 40
0.0722600329447714
 40
0.0739175935125948
 40
0.0739175935125948
 40
0.0739175935125948
 40
0.0739175935125948
 10
179.023665697331
 20
0.0000000000000255
 30
0.0
 10
178.4894855383223
 20
-0.0771892202716314
 30
0.0
 10
177.2076030604811
 20
-0.2614934498144634
 30
0.0
 10
175.6952093208974
 20
-0.476690935011865
 30
0.0
 10
174.7169902656071
 20
-0.6146419133350862
 30
0.0
 10
174.4866966542028
 20
-0.6470515101597982
 30
0.0
  0
SPLINE
  5
65
330
1F
100
AcDbEntity
  8
0
  6
Continuous
 62
     7
370
    25
100
AcDbSpline
210
0.0
220
0.0
230
1.0
 70
     8
 71
     3
 72
    10
 73
     6
 74
     0
 42
0.00000001
 43
0.00000001
 40
0.063029644955289
 40
0.063029644955289
 40
0.063029644955289
 40
0.063029644955289
 40
0.0668764842965997
 40
0.0722600329447714
 40
0.0739175935357202
 40
0.0739175935357202
 40
0.0739175935357202
 40
0.0739175935357202
 10
179.023665697331
 20
0.0000000000000094
 30
0.0
 10
178.4894855383223
 20
0.0771892202716663
 30
0.0
 10
177.2076030604811
 20
0.2614934498144983
 30
0.0
 10
175.6952093176852
 20
0.4766909354689685
 30
0.0
 10
174.7169902591815
 20
0.6146419142412789
 30
0.0
 10
174.4866966445639
 20
0.64705151151632
 30
0.0
  0
LINE
  5
66
330
1F
100
AcDbEntity
  8
0
  6
Continuous
 62
     7
370
    25
100
AcDbLine
 10
174.9234707951
 20
3.9755196659
 30
0.0
 11
174.4866966446
 21
0.6470515115
 31
0.0
  0
LINE
  5
67
330
1F
100
AcDbEntity
  8
0
  6
Continuous
 62
     7
370
    25
100
AcDbLine
 10
173.4362211204
 20
4.1706821757
 30
0.0
 11
174.9234707951
 21
3.9755196659
 31
0.0
  0
LINE
  5
68
330
1F
100
AcDbEntity
  8
0
  6
Continuous
 62
     7
370
    25
100
AcDbLine
 10
173.4362211204
 20
4.1706821757
 30
0.0
 11
173.0011513168
 21
0.8552020424
 31
0.0
  0
SPLINE
  5
69
330
1F
100
AcDbEntity
  8
0
  6
Continuous
 62
     7
370
    25
100
AcDbSpline
210
0.0
220
0.0
230
1.0
 70
     8
 71
     3
 72
    11
 73
     7
 74
     0
 42
0.00000001
 43
0.00000001
 40
0.077481410800285
 40
0.077481410800285
 40
0.077481410800285
 40
0.077481410800285
 40
0.0778135054956683
 40
0.0835323726867181
 40
0.089410044022173
 40
0.0899089241345077
 40
0.0899089241345077
 40
0.0899089241345077
 40
0.0899089241345077
 10
173.0011513168067
 20
0.8552020423029676
 30
0.0
 10
172.955003927388
 20
0.8616402517656963
 30
0.0
 10
172.1141648299271
 20
0.9789027343886005
 30
0.0
 10
170.4563402493541
 20
1.208443527926049
 30
0.0
 10
168.7748281792412
 20
1.437494811602528
 30
0.0
 10
167.8882436728739
 20
1.55741534171596
 30
0.0
 10
167.8188795568655
 20
1.566792329025815
 30
0.0
  0
LINE
  5
6A
330
1F
100
AcDbEntity
  8
0
  6
Continuous
 62
     7
370
    25
100
AcDbLine
 10
168.238263185
 20
4.9038832378
 30
0.0
 11
167.8188795569
 21
1.566792329
 31
0.0
  0
LINE
  5
6B
330
1F
100
AcDbEntity
  8
0
  6
Continuous
 62
     7
370
    25
100
AcDbLine
 10
166.74997005
 20
5.090922122
 30
0.0
 11
168.238263185
 21
4.9038832378
 31
0.0
  0
LINE
  5
6C
330
1F
100
AcDbEntity
  8
0
  6
Continuous
 62
     7
370
    25
100
AcDbLine
 10
166.74997005
 20
5.090922122
 30
0.0
 11
166.3322311005
 21
1.7669180606
 31
0.0
  0
SPLINE
  5
6D
330
1F
100
AcDbEntity
  8
0
  6
Continuous
 62
     7
370
    25
100
AcDbSpline
210
0.0
220
0.0
230
1.0
 70
     8
 71
     3
 72
    10
 73
     6
 74
     0
 42
0.00000001
 43
0.00000001
 40
0.0934727431569334
 40
0.0934727431569334
 40
0.0934727431569334
 40
0.0934727431569334
 40
0.095440679275495
 40
0.1016186621989038
 40
0.1059059971791887
 40
0.1059059971791887
 40
0.1059059971791887
 40
0.1059059971791887
 10
166.3322311004796
 20
1.766918060494858
 30
0.0
 10
166.0585678807554
 20
1.803594668593069
 30
0.0
 10
164.9257370561652
 20
1.955030403421509
 30
0.0
 10
163.1963363170651
 20
2.183605111390472
 30
0.0
 10
161.7403626151065
 20
2.373694697007608
 30
0.0
 10
161.1438360236986
 20
2.451131688366011
 30
0.0
  0
LINE
  5
6E
330
1F
100
AcDbEntity
  8
0
  6
Continuous
 62
     7
370
    25
100
AcDbLine
 10
161.5460494106
 20
5.7963793018
 30
0.0
 11
161.1438360237
 21
2.4511316884
 31
0.0
  0
LINE
  5
6F
330
1F
100
AcDbEntity
  8
0
  6
Continuous
 62
     7
370
    25
100
AcDbLine
 10
160.0567754638
 20
5.9754410553
 30
0.0
 11
161.5460494106
 21
5.7963793018
 31
0.0
  0
LINE
  5
70
330
1F
100
AcDbEntity
  8
0
  6
Continuous
 62
     7
370
    25
100
AcDbLine
 10
160.0567754638
 20
5.9754410553
 30
0.0
 11
159.6561389024
 21
2.6433079703
 31
0.0
  0
SPLINE
  5
71
330
1F
100
AcDbEntity
  8
0
  6
Continuous
 62
     7
370
    25
100
AcDbSpline
210
0.0
220
0.0
230
1.0
 70
     8
 71
     3
 72
    10
 73
     6
 74
     0
 42
0.00000001
 43
0.00000001
 40
0.1094698169253893
 40
0.1094698169253893
 40
0.1094698169253893
 40
0.1094698169253893
 40
0.1143914245660113
 40
0.1209727662677353
 40
0.1219033993776348
 40
0.1219033993776348
 40
0.1219033993776348
 40
0.1219033993776348
 10
159.6561389023522
 20
2.643307970242702
 30
0.0
 10
158.97125041426
 20
2.731340623673484
 30
0.0
 10
157.370329086615
 20
2.935720803108805
 30
0.0
 10
155.6394953478266
 20
3.153547750561008
 30
0.0
 10
154.5936153698904
 20
3.283827193572287
 30
0.0
 10
154.4640423068452
 20
3.299946697621726
 30
0.0
  0
LINE
  5
72
330
1F
100
AcDbEntity
  8
0
  6
Continuous
 62
     7
370
    25
100
AcDbLine
 10
154.8491988925
 20
6.6531197481
 30
0.0
 11
154.4640423068
 21
3.2999466976
 31
0.0
  0
LINE
  5
73
330
1F
100
AcDbEntity
  8
0
  6
Continuous
 62
     7
370
    25
100
AcDbLine
 10
153.358997228
 20
6.8242892528
 30
0.0
 11
154.8491988925
 21
6.6531197481
 31
0.0
  0
LINE
  5
74
330
1F
100
AcDbEntity
  8
0
  6
Continuous
 62
     7
370
    25
100
AcDbLine
 10
153.358997228
 20
6.8242892528
 30
0.0
 11
152.9753474852
 21
3.4842346901
 31
0.0
  0
SPLINE
  5
75
330
1F
100
AcDbEntity
  8
0
  6
Continuous
 62
     7
370
    25
100
AcDbSpline
210
0.0
220
0.0
230
1.0
 70
     8
 71
     3
 72
    10
 73
     6
 74
     0
 42
0.00000001
 43
0.00000001
 40
0.125467218656024
 40
0.125467218656024
 40
0.125467218656024
 40
0.125467218656024
 40
0.1276760977527749
 40
0.1344944392438565
 40
0.1379000787348833
 40
0.1379000787348833
 40
0.1379000787348833
 40
0.1379000787348833
 10
152.9753474852299
 20
3.484234690050188
 30
0.0
 10
152.6677567894137
 20
3.522122789173564
 30
0.0
 10
151.4106405642368
 20
3.676490447610848
 30
0.0
 10
149.6789329684039
 20
3.886419696703242
 30
0.0
 10
148.2545959674379
 20
4.056615295559006
 30
0.0
 10
147.7801127712081
 20
4.113037511148008
 30
0.0
  0
LINE
  5
76
330
1F
100
AcDbEntity
  8
0
  6
Continuous
 62
     7
370
    25
100
AcDbLine
 10
148.1478127838
 20
7.4740830397
 30
0.0
 11
147.7801127712
 21
4.1130375111
 31
0.0
  0
LINE
  5
77
330
1F
100
AcDbEntity
  8
0
  6
Continuous
 62
     7
370
    25
100
AcDbLine
 10
146.6567093534
 20
7.6372104746
 30
0.0
 11
148.1478127838
 21
7.4740830397
 31
0.0
  0
LINE
  5
78
330
1F
100
AcDbEntity
  8
0
  6
Continuous
 62
     7
370
    25
100
AcDbLine
 10
146.6567093534
 20
7.6372104746
 30
0.0
 11
146.2904438545
 21
4.2892773554
 31
0.0
  0
SPLINE
  5
79
330
1F
100
AcDbEntity
  8
0
  6
Continuous
 62
     7
370
    25
100
AcDbSpline
210
0.0
220
0.0
230
1.0
 70
     8
 71
     3
 72
     9
 73
     5
 74
     0
 42
0.00000001
 43
0.00000001
 40
0.1414638976755981
 40
0.1414638976755981
 40
0.1414638976755981
 40
0.1414638976755981
 40
0.1484480050854347
 40
0.1538927469921622
 40
0.1538927469921622
 40
0.1538927469921622
 40
0.1538927469921622
 10
146.2904438545405
 20
4.289277355449259
 30
0.0
 10
145.3172611446689
 20
4.403824048643586
 30
0.0
 10
143.5851562631419
 20
4.605644889282129
 30
0.0
 10
141.8526223565258
 20
4.803744786567412
 30
0.0
 10
141.0935645402115
 20
4.889806832628504
 30
0.0
  0
LINE
  5
7A
330
1F
100
AcDbEntity
  8
0
  6
Continuous
 62
     7
370
    25
100
AcDbLine
 10
141.4430870785
 20
8.2590721031
 30
0.0
 11
141.0935645402
 21
4.8898068326
 31
0.0
  0
LINE
  5
7B
330
1F
100
AcDbEntity
  8
0
  6
Continuous
 62
     7
370
    25
100
AcDbLine
 10
139.9510937695
 20
8.4138492525
 30
0.0
 11
141.4430870785
 21
8.2590721031
 31
0.0
  0
LINE
  5
7C
330
1F
100
AcDbEntity
  8
0
  6
Continuous
 62
     7
370
    25
100
AcDbLine
 10
139.9510937695
 20
8.4138492525
 30
0.0
 11
139.6029497472
 21
5.0578722626
 31
0.0
  0
SPLINE
  5
7D
330
1F
100
AcDbEntity
  8
0
  6
Continuous
 62
     7
370
    25
100
AcDbSpline
210
0.0
220
0.0
230
1.0
 70
     8
 71
     3
 72
     9
 73
     5
 74
     0
 42
0.00000001
 43
0.00000001
 40
0.1574565692293244
 40
0.1574565692293244
 40
0.1574565692293244
 40
0.1574565692293244
 40
0.1627784325723483
 40
0.1698839673881832
 40
0.1698839673881832
 40
0.1698839673881832
 40
0.1698839673881832
 10
139.602949747233
 20
5.057872262528239
 30
0.0
 10
138.8609179079115
 20
5.141064030342765
 30
0.0
 10
137.1279713862941
 20
5.333688218893751
 30
0.0
 10
135.3945802533492
 20
5.522273943472336
 30
0.0
 10
134.4033620545953
 20
5.628910324555267
 30
0.0
  0
LINE
  5
7E
330
1F
100
AcDbEntity
  8
0
  6
Continuous
 62
     7
370
    25
100
AcDbLine
 10
134.7339452823
 20
9.0064385631
 30
0.0
 11
134.4033620546
 21
5.6289103246
 31
0.0
  0
LINE
  5
7F
330
1F
100
AcDbEntity
  8
0
  6
Continuous
 62
     7
370
    25
100
AcDbLine
 10
133.2410790361
 20
9.1525562245
 30
0.0
 11
134.7339452823
 21
9.0064385631
 31
0.0
  0
LINE
  5
80
330
1F
100
AcDbEntity
  8
0
  6
Continuous
 62
     7
370
    25
100
AcDbLine
 10
133.2410790361
 20
9.1525562245
 30
0.0
 11
132.9118087927
 21
5.7884424879
 31
0.0
  0
SPLINE
  5
81
330
1F
100
AcDbEntity
  8
0
  6
Continuous
 62
     7
370
    25
100
AcDbSpline
210
0.0
220
0.0
230
1.0
 70
     8
 71
     3
 72
    10
 73
     6
 74
     0
 42
0.00000001
 43
0.00000001
 40
0.1734477918753898
 40
0.1734477918753898
 40
0.1734477918753898
 40
0.1734477918753898
 40
0.177428241169581
 40
0.1848550826164702
 40
0.1858750203611513
 40
0.1858750203611513
 40
0.1858750203611513
 40
0.1858750203611513
 10
132.9118087927253
 20
5.788442487793456
 30
0.0
 10
132.3564639347456
 20
5.84748335508749
 30
0.0
 10
130.7648163533269
 20
6.015519811599231
 30
0.0
 10
129.0304393129156
 20
6.194586604781313
 30
0.0
 10
127.8513987935967
 20
6.314476042045087
 30
0.0
 10
127.709028429163
 20
6.32892556984307
 30
0.0
  0
LINE
  5
82
330
1F
100
AcDbEntity
  8
0
  6
Continuous
 62
     7
370
    25
100
AcDbLine
 10
128.0192883953
 20
9.715091525
 30
0.0
 11
127.7090284292
 21
6.3289255698
 31
0.0
  0
LINE
  5
83
330
1F
100
AcDbEntity
  8
0
  6
Continuous
 62
     7
370
    25
100
AcDbLine
 10
126.5255454822
 20
9.8519568225
 30
0.0
 11
128.0192883953
 21
9.715091525
 31
0.0
  0
LINE
  5
84
330
1F
100
AcDbEntity
  8
0
  6
Continuous
 62
     7
370
    25
100
AcDbLine
 10
126.5255454822
 20
9.8519568225
 30
0.0
 11
126.2165313476
 21
6.4793877201
 31
0.0
  0
SPLINE
  5
85
330
1F
100
AcDbEntity
  8
0
  6
Continuous
 62
     7
370
    25
100
AcDbSpline
210
0.0
220
0.0
230
1.0
 70
     8
 71
     3
 72
    10
 73
     6
 74
     0
 42
0.00000001
 43
0.00000001
 40
0.1894388487426551
 40
0.1894388487426551
 40
0.1894388487426551
 40
0.1894388487426551
 40
0.1923395725049364
 40
0.1998747389764339
 40
0.2018629520281273
 40
0.2018629520281273
 40
0.2018629520281273
 40
0.2018629520281273
 10
126.2165313475453
 20
6.479387720060757
 30
0.0
 10
125.8115717340191
 20
6.519932580987438
 30
0.0
 10
124.3545720176958
 20
6.664974738286645
 30
0.0
 10
122.6196249611037
 20
6.833972295604415
 30
0.0
 10
121.2894916096145
 20
6.960862138924724
 30
0.0
 10
121.0117863378792
 20
6.987237957842809
 30
0.0
  0
LINE
  5
86
330
1F
100
AcDbEntity
  8
0
  6
Continuous
 62
     7
370
    25
100
AcDbLine
 10
121.3001362155
 20
10.3824036537
 30
0.0
 11
121.0117863379
 21
6.9872379578
 31
0.0
  0
LINE
  5
87
330
1F
100
AcDbEntity
  8
0
  6
Continuous
 62
     7
370
    25
100
AcDbLine
 10
119.805516895
 20
10.5093409882
 30
0.0
 11
121.3001362155
 21
10.3824036537
 31
0.0
  0
LINE
  5
88
330
1F
100
AcDbEntity
  8
0
  6
Continuous
 62
     7
370
    25
100
AcDbLine
 10
119.805516895
 20
10.5093409882
 30
0.0
 11
119.5183380861
 21
7.1279638864
 31
0.0
  0
SPLINE
  5
89
330
1F
100
AcDbEntity
  8
0
  6
Continuous
 62
     7
370
    25
100
AcDbSpline
210
0.0
220
0.0
230
1.0
 70
     8
 71
     3
 72
    10
 73
     6
 74
     0
 42
0.00000001
 43
0.00000001
 40
0.2054267843127096
 40
0.2054267843127096
 40
0.2054267843127096
 40
0.2054267843127096
 40
0.2074531849492214
 40
0.2150665967816933
 40
0.2178470412267529
 40
0.2178470412267529
 40
0.2178470412267529
 40
0.2178470412267529
 10
119.5183380861308
 20
7.127963886361407
 30
0.0
 10
119.2352593616757
 20
7.154426495300294
 30
0.0
 10
117.8885695259078
 20
7.279745796140845
 30
0.0
 10
116.1531285376184
 20
7.437751138891739
 30
0.0
 10
114.7005242786369
 20
7.566559551983167
 30
0.0
 10
114.3119186736646
 20
7.600770705112655
 30
0.0
  0
LINE
  5
8A
330
1F
100
AcDbEntity
  8
0
  6
Continuous
 62
     7
370
    25
100
AcDbLine
 10
114.5764274483
 20
11.0056068186
 30
0.0
 11
114.3119186737
 21
7.6007707051
 31
0.0
  0
LINE
  5
8B
330
1F
100
AcDbEntity
  8
0
  6
Continuous
 62
     7
370
    25
100
AcDbLine
 10
113.0809334216
 20
11.1217860603
 30
0.0
 11
114.5764274483
 21
11.0056068186
 31
0.0
  0
LINE
  5
8C
330
1F
100
AcDbEntity
  8
0
  6
Continuous
 62
     7
370
    25
100
AcDbLine
 10
113.0809334216
 20
11.1217860603
 30
0.0
 11
112.8175242777
 21
7.7311045979
 31
0.0
  0
SPLINE
  5
8D
330
1F
100
AcDbEntity
  8
0
  6
Continuous
 62
     7
370
    25
100
AcDbSpline
210
0.0
220
0.0
230
1.0
 70
     8
 71
     3
 72
    10
 73
     6
 74
     0
 42
0.00000001
 43
0.00000001
 40
0.2214108811404203
 40
0.2214108811404203
 40
0.2214108811404203
 40
0.2214108811404203
 40
0.2227085242052342
 40
0.230370632307142
 40
0.2338219393584538
 40
0.2338219393584538
 40
0.2338219393584538
 40
0.2338219393584538
 10
112.8175242776939
 20
7.731104597849543
 30
0.0
 10
112.6361348887495
 20
7.746775299157375
 30
0.0
 10
111.3836751746401
 20
7.854602440099304
 30
0.0
 10
109.6484590152913
 20
8.000383398458965
 30
0.0
 10
108.0943221585637
 20
8.126698812681234
 30
0.0
 10
107.6116472413194
 20
8.165520373976468
 30
0.0
  0
LINE
  5
8E
330
1F
100
AcDbEntity
  8
0
  6
Continuous
 62
     7
370
    25
100
AcDbLine
 10
107.8502308186
 20
11.5802890397
 30
0.0
 11
107.6116472413
 21
8.165520374
 31
0.0
  0
LINE
  5
8F
330
1F
100
AcDbEntity
  8
0
  6
Continuous
 62
     7
370
    25
100
AcDbLine
 10
106.3538786374
 20
11.6848363976
 30
0.0
 11
107.8502308186
 21
11.5802890397
 31
0.0
  0
LINE
  5
90
330
1F
100
AcDbEntity
  8
0
  6
Continuous
 62
     7
370
    25
100
AcDbLine
 10
106.3538786374
 20
11.6848363976
 30
0.0
 11
106.1163023755
 21
8.2844849683
 31
0.0
  0
SPLINE
  5
91
330
1F
100
AcDbEntity
  8
0
  6
Continuous
 62
     7
370
    25
100
AcDbSpline
210
0.0
220
0.0
230
1.0
 70
     8
 71
     3
 72
    10
 73
     6
 74
     0
 42
0.00000001
 43
0.00000001
 40
0.2373857847630829
 40
0.2373857847630829
 40
0.2373857847630829
 40
0.2373857847630829
 40
0.2380455706446768
 40
0.2457255541852033
 40
0.2497956970752382
 40
0.2497956970752382
 40
0.2497956970752382
 40
0.2497956970752382
 10
106.1163023754882
 20
8.284484968235537
 30
0.0
 10
106.0240167324694
 20
8.291746397479573
 30
0.0
 10
104.8575008603543
 20
8.383344682444156
 30
0.0
 10
103.1214025321384
 20
8.5161310531754
 30
0.0
 10
101.4772131874342
 20
8.636586912730165
 30
0.0
 10
100.9076343633754
 20
8.677678020796334
 30
0.0
  0
LINE
  5
92
330
1F
100
AcDbEntity
  8
0
  6
Continuous
 62
     7
370
    25
100
AcDbLine
 10
101.1171289127
 20
12.1033592898
 30
0.0
 11
100.9076343634
 21
8.6776780208
 31
0.0
  0
LINE
  5
93
330
1F
100
AcDbEntity
  8
0
  6
Continuous
 62
     7
370
    25
100
AcDbLine
 10
99.6199259401
 20
12.1949194272
 30
0.0
 11
101.1171289127
 21
12.1033592898
 31
0.0
  0
LINE
  5
94
330
1F
100
AcDbEntity
  8
0
  6
Continuous
 62
     7
370
    25
100
AcDbLine
 10
99.6199259401
 20
12.1949194272
 30
0.0
 11
99.4113438543
 21
8.784158721
 31
0.0
  0
SPLINE
  5
95
330
1F
100
AcDbEntity
  8
0
  6
Continuous
 62
     7
370
    25
100
AcDbSpline
210
0.0
220
0.0
230
1.0
 70
     8
 71
     3
 72
    10
 73
     6
 74
     0
 42
0.00000001
 43
0.00000001
 40
0.2533595535240097
 40
0.2533595535240097
 40
0.2533595535240097
 40
0.2533595535240097
 40
0.2534031881311994
 40
0.2610712062724442
 40
0.265763567492215
 40
0.265763567492215
 40
0.265763567492215
 40
0.265763567492215
 10
99.41134385431336
 20
8.78415872086833
 30
0.0
 10
99.40523674691534
 20
8.78458733504393
 30
0.0
 10
98.32591154843998
 20
8.860324488116335
 30
0.0
 10
96.58958474186457
 20
8.978479584089513
 30
0.0
 10
94.85895578675503
 20
9.08999245348449
 30
0.0
 10
94.20190050021708
 20
9.13140708098386
 30
0.0
  0
LINE
  5
96
330
1F
100
AcDbEntity
  8
0
  6
Continuous
 62
     7
370
    25
100
AcDbLine
 10
94.3792876921
 20
12.5685195903
 30
0.0
 11
94.2019005002
 21
9.131407081
 31
0.0
  0
LINE
  5
97
330
1F
100
AcDbEntity
  8
0
  6
Continuous
 62
     7
370
    25
100
AcDbLine
 10
92.881281355
 20
12.645830741
 30
0.0
 11
94.3792876921
 21
12.5685195903
 31
0.0
  0
LINE
  5
98
330
1F
100
AcDbEntity
  8
0
  6
Continuous
 62
     7
370
    25
100
AcDbLine
 10
92.881281355
 20
12.645830741
 30
0.0
 11
92.7046916861
 21
9.2241711144
 31
0.0
  0
SPLINE
  5
99
330
1F
100
AcDbEntity
  8
0
  6
Continuous
 62
     7
370
    25
100
AcDbSpline
210
0.0
220
0.0
230
1.0
 70
     8
 71
     3
 72
     9
 73
     5
 74
     0
 42
0.00000001
 43
0.00000001
 40
0.2693274361766392
 40
0.2693274361766392
 40
0.2693274361766392
 40
0.2693274361766392
 40
0.2763478174214306
 40
0.2817236019008884
 40
0.2817236019008884
 40
0.2817236019008884
 40
0.2817236019008884
 10
92.70469168606658
 20
9.224171114315807
 30
0.0
 10
91.72152095967685
 20
9.284025004395398
 30
0.0
 10
89.98527108093687
 20
9.385998247357863
 30
0.0
 10
88.24861945188145
 20
9.480852512179926
 30
0.0
 10
87.49542372432451
 20
9.52065582727494
 30
0.0
  0
LINE
  5
9A
330
1F
100
AcDbEntity
  8
0
  6
Continuous
 62
     7
370
    25
100
AcDbLine
 10
87.6366913221
 20
12.9698580271
 30
0.0
 11
87.4954237243
 21
9.5206558273
 31
0.0
  0
LINE
  5
9B
330
1F
100
AcDbEntity
  8
0
  6
Continuous
 62
     7
370
    25
100
AcDbLine
 10
86.1379478237
 20
13.0312414622
 30
0.0
 11
87.6366913221
 21
12.9698580271
 31
0.0
  0
LINE
  5
9C
330
1F
100
AcDbEntity
  8
0
  6
Continuous
 62
     7
370
    25
100
AcDbLine
 10
86.1379478237
 20
13.0312414622
 30
0.0
 11
85.9973365115
 21
9.5980629604
 31
0.0
  0
SPLINE
  5
9D
330
1F
100
AcDbEntity
  8
0
  6
Continuous
 62
     7
370
    25
100
AcDbSpline
210
0.0
220
0.0
230
1.0
 70
     8
 71
     3
 72
     9
 73
     5
 74
     0
 42
0.00000001
 43
0.00000001
 40
0.2852874836551207
 40
0.2852874836551207
 40
0.2852874836551207
 40
0.2852874836551207
 40
0.2914949081091773
 40
0.2976713386199581
 40
0.2976713386199581
 40
0.2976713386199581
 40
0.2976713386199581
 10
85.99733651152624
 20
9.598062960272353
 30
0.0
 10
85.12751471701509
 20
9.641979145586493
 30
0.0
 10
83.39203164156524
 20
9.725974602544545
 30
0.0
 10
81.65617995258128
 20
9.801987309447842
 30
0.0
 10
80.79034401662332
 20
9.837920827790077
 30
0.0
  0
LINE
  5
9E
330
1F
100
AcDbEntity
  8
0
  6
Continuous
 62
     7
370
    25
100
AcDbLine
 10
80.8905129551
 20
13.3001607201
 30
0.0
 11
80.7903440166
 21
9.8379208278
 31
0.0
  0
LINE
  5
9F
330
1F
100
AcDbEntity
  8
0
  6
Continuous
 62
     7
370
    25
100
AcDbLine
 10
79.3911403492
 20
13.3435403106
 30
0.0
 11
80.8905129551
 21
13.3001607201
 31
0.0
  0
LINE
  5
A0
330
1F
100
AcDbEntity
  8
0
  6
Continuous
 62
     7
370
    25
100
AcDbLine
 10
79.3911403492
 20
13.3435403106
 30
0.0
 11
79.2914586161
 21
9.8981398716
 31
0.0
  0
SPLINE
  5
A1
330
1F
100
AcDbEntity
  8
0
  6
Continuous
 62
     7
370
    25
100
AcDbSpline
210
0.0
220
0.0
230
1.0
 70
     8
 71
     3
 72
     9
 73
     5
 74
     0
 42
0.00000001
 43
0.00000001
 40
0.3012352404827093
 40
0.3012352404827093
 40
0.3012352404827093
 40
0.3012352404827093
 40
0.3064539145894862
 40
0.3136086207420142
 40
0.3136086207420142
 40
0.3136086207420142
 40
0.3136086207420142
 10
79.29145861608382
 20
9.89813987146553
 30
0.0
 10
78.55980632575226
 20
9.926552334358387
 30
0.0
 10
76.82493798226584
 20
9.990451672789447
 30
0.0
 10
75.0897606651978
 20
10.04546059564005
 30
0.0
 10
74.08633756078301
 20
10.07432484568472
 30
0.0
  0
LINE
  5
A2
330
1F
100
AcDbEntity
  8
0
  6
Continuous
 62
     7
370
    25
100
AcDbLine
 10
74.1400115762
 20
13.5501351441
 30
0.0
 11
74.0863375608
 21
10.0743248457
 31
0.0
  0
LINE
  5
A3
330
1F
100
AcDbEntity
  8
0
  6
Continuous
 62
     7
370
    25
100
AcDbLine
 10
72.6401903894
 20
13.5732956177
 30
0.0
 11
74.1400115762
 21
13.5501351441
 31
0.0
  0
LINE
  5
A4
330
1F
100
AcDbEntity
  8
0
  6
Continuous
 62
     7
370
    25
100
AcDbLine
 10
72.6401903894
 20
13.5732956177
 30
0.0
 11
72.5867904403
 21
10.1152327026
 31
0.0
  0
SPLINE
  5
A5
330
1F
100
AcDbEntity
  8
0
  6
Continuous
 62
     7
370
    25
100
AcDbSpline
210
0.0
220
0.0
230
1.0
 70
     8
 71
     3
 72
    10
 73
     6
 74
     0
 42
0.00000001
 43
0.00000001
 40
0.3171725466405128
 40
0.3171725466405128
 40
0.3171725466405128
 40
0.3171725466405128
 40
0.3211672698806775
 40
0.3284146888766261
 40
0.3295345470895781
 40
0.3295345470895781
 40
0.3295345470895781
 40
0.3295345470895781
 10
72.58679044029329
 20
10.11523270248714
 30
0.0
 10
72.02649844321729
 20
10.12966920977214
 30
0.0
 10
70.44962795175788
 20
10.16757181442674
 30
0.0
 10
68.71548110160687
 20
10.20028297249935
 30
0.0
 10
67.54164385864479
 20
10.21781546587009
 30
0.0
 10
67.3845388225306
 20
10.22007803300389
 30
0.0
  0
LINE
  5
A6
330
1F
100
AcDbEntity
  8
0
  6
Continuous
 62
     7
370
    25
100
AcDbLine
 10
67.3845388225
 20
13.7103229089
 30
0.0
 11
67.3845388225
 21
10.2200780331
 31
0.0
  0
LINE
  5
A7
330
1F
100
AcDbEntity
  8
0
  6
Continuous
 62
     7
370
    25
100
AcDbLine
 10
65.8845388225
 20
13.7103229089
 30
0.0
 11
67.3845388225
 21
13.7103229089
 31
0.0
  0
LINE
  5
A8
330
1F
100
AcDbEntity
  8
0
  6
Continuous
 62
     7
370
    25
100
AcDbLine
 10
65.8845388225
 20
13.7103229089
 30
0.0
 11
65.8845388225
 21
10.239084238
 31
0.0
  0
SPLINE
  5
A9
330
1F
100
AcDbEntity
  8
0
  6
Continuous
 62
     7
370
    25
100
AcDbSpline
210
0.0
220
0.0
230
1.0
 70
     8
 71
     3
 72
    10
 73
     6
 74
     0
 42
0.00000001
 43
0.00000001
 40
0.3330985089856278
 40
0.3330985089856278
 40
0.3330985089856278
 40
0.3330985089856278
 40
0.3355794200055763
 40
0.3426554603620372
 40
0.3437897406142582
 40
0.3437897406142582
 40
0.3437897406142582
 40
0.3437897406142582
 10
65.8845388225315
 20
10.23908423793307
 30
0.0
 10
65.5364762875384
 20
10.24288160793392
 30
0.0
 10
64.1956537258
 20
10.25583858492015
 30
0.0
 10
62.69563045022903
 20
10.26287888079744
 30
0.0
 10
61.5436836777478
 20
10.26333438075884
 30
0.0
 10
61.38453882253243
 20
10.26330117794512
 30
0.0
  0
LINE
  5
AA
330
1F
100
AcDbEntity
  8
0
  6
Continuous
 62
     7
370
    25
100
AcDbLine
 10
61.3845388225
 20
10.2633011779
 30
0.0
 11
61.3845388225
 21
-10.2633011779
 31
0.0
  0
SPLINE
  5
AB
330
1F
100
AcDbEntity
  8
0
  6
Continuous
 62
     7
370
    25
100
AcDbSpline
210
0.0
220
0.0
230
1.0
 70
     8
 71
     3
 72
    10
 73
     6
 74
     0
 42
0.00000001
 43
0.00000001
 40
0.3330985089856278
 40
0.3330985089856278
 40
0.3330985089856278
 40
0.3330985089856278
 40
0.3355794200055763
 40
0.3426554603620372
 40
0.3437897406142582
 40
0.3437897406142582
 40
0.3437897406142582
 40
0.3437897406142582
 10
65.8845388225315
 20
-10.23908423793304
 30
0.0
 10
65.5364762875384
 20
-10.24288160793389
 30
0.0
 10
64.1956537258
 20
-10.25583858492012
 30
0.0
 10
62.69563045022903
 20
-10.26287888079741
 30
0.0
 10
61.5436836777478
 20
-10.2633343807588
 30
0.0
 10
61.38453882253243
 20
-10.26330117794508
 30
0.0
  0
LINE
  5
AC
330
1F
100
AcDbEntity
  8
0
  6
Continuous
 62
     7
370
    25
100
AcDbLine
 10
65.8845388225
 20
-13.7103229089
 30
0.0
 11
65.8845388225
 21
-10.239084238
 31
0.0
  0
LINE
  5
AD
330
1F
100
AcDbEntity
  8
0
  6
Continuous
 62
     7
370
    25
100
AcDbLine
 10
65.8845388225
 20
-13.7103229089
 30
0.0
 11
67.3845388225
 21
-13.7103229089
 31
0.0
  0
LINE
  5
AE
330
1F
100
AcDbEntity
  8
0
  6
Continuous
 62
     7
370
    25
100
AcDbLine
 10
67.3845388225
 20
-13.7103229089
 30
0.0
 11
67.3845388225
 21
-10.2200780331
 31
0.0
  0
SPLINE
  5
AF
330
1F
100
AcDbEntity
  8
0
  6
Continuous
 62
     7
370
    25
100
AcDbSpline
210
0.0
220
0.0
230
1.0
 70
     8
 71
     3
 72
    10
 73
     6
 74
     0
 42
0.00000001
 43
0.00000001
 40
0.3171725466405128
 40
0.3171725466405128
 40
0.3171725466405128
 40
0.3171725466405128
 40
0.3211672698806775
 40
0.3284146888766261
 40
0.3295345470895781
 40
0.3295345470895781
 40
0.3295345470895781
 40
0.3295345470895781
 10
72.58679044029329
 20
-10.11523270248711
 30
0.0
 10
72.02649844321729
 20
-10.12966920977211
 30
0.0
 10
70.44962795175788
 20
-10.1675718144267
 30
0.0
 10
68.71548110160687
 20
-10.20028297249931
 30
0.0
 10
67.54164385864479
 20
-10.21781546587006
 30
0.0
 10
67.3845388225306
 20
-10.22007803300386
 30
0.0
  0
LINE
  5
B0
330
1F
100
AcDbEntity
  8
0
  6
Continuous
 62
     7
370
    25
100
AcDbLine
 10
72.6401903894
 20
-13.5732956177
 30
0.0
 11
72.5867904403
 21
-10.1152327026
 31
0.0
  0
LINE
  5
B1
330
1F
100
AcDbEntity
  8
0
  6
Continuous
 62
     7
370
    25
100
AcDbLine
 10
72.6401903894
 20
-13.5732956177
 30
0.0
 11
74.1400115762
 21
-13.5501351441
 31
0.0
  0
LINE
  5
B2
330
1F
100
AcDbEntity
  8
0
  6
Continuous
 62
     7
370
    25
100
AcDbLine
 10
74.1400115762
 20
-13.5501351441
 30
0.0
 11
74.0863375692
 21
-10.0743248456
 31
0.0
  0
SPLINE
  5
B3
330
1F
100
AcDbEntity
  8
0
  6
Continuous
 62
     7
370
    25
100
AcDbSpline
210
0.0
220
0.0
230
1.0
 70
     8
 71
     3
 72
     9
 73
     5
 74
     0
 42
0.00000001
 43
0.00000001
 40
0.3012352404827093
 40
0.3012352404827093
 40
0.3012352404827093
 40
0.3012352404827093
 40
0.3064539145894862
 40
0.3136086207219049
 40
0.3136086207219049
 40
0.3136086207219049
 40
0.3136086207219049
 10
79.29145861608382
 20
-9.898139871465496
 30
0.0
 10
78.55980632575226
 20
-9.926552334358352
 30
0.0
 10
76.82493798508534
 20
-9.990451672685563
 30
0.0
 10
75.08976067083785
 20
-10.04546059546121
 30
0.0
 10
74.0863375692438
 20
-10.07432484544131
 30
0.0
  0
LINE
  5
B4
330
1F
100
AcDbEntity
  8
0
  6
Continuous
 62
     7
370
    25
100
AcDbLine
 10
79.3911403492
 20
-13.3435403106
 30
0.0
 11
79.2914586161
 21
-9.8981398716
 31
0.0
  0
LINE
  5
B5
330
1F
100
AcDbEntity
  8
0
  6
Continuous
 62
     7
370
    25
100
AcDbLine
 10
79.3911403492
 20
-13.3435403106
 30
0.0
 11
80.8905129551
 21
-13.3001607201
 31
0.0
  0
LINE
  5
B6
330
1F
100
AcDbEntity
  8
0
  6
Continuous
 62
     7
370
    25
100
AcDbLine
 10
80.8905129551
 20
-13.3001607201
 30
0.0
 11
80.7903440257
 21
-9.8379208275
 31
0.0
  0
SPLINE
  5
B7
330
1F
100
AcDbEntity
  8
0
  6
Continuous
 62
     7
370
    25
100
AcDbSpline
210
0.0
220
0.0
230
1.0
 70
     8
 71
     3
 72
     9
 73
     5
 74
     0
 42
0.00000001
 43
0.00000001
 40
0.2852874836551207
 40
0.2852874836551207
 40
0.2852874836551207
 40
0.2852874836551207
 40
0.2914949081091773
 40
0.2976713385982729
 40
0.2976713385982729
 40
0.2976713385982729
 40
0.2976713385982729
 10
85.99733651152624
 20
-9.598062960272317
 30
0.0
 10
85.12751471701509
 20
-9.64197914558646
 30
0.0
 10
83.39203164460422
 20
-9.725974602397427
 30
0.0
 10
81.65617995866053
 20
-9.801987309181598
 30
0.0
 10
80.79034402574308
 20
-9.83792082741156
 30
0.0
  0
LINE
  5
B8
330
1F
100
AcDbEntity
  8
0
  6
Continuous
 62
     7
370
    25
100
AcDbLine
 10
86.1379478237
 20
-13.0312414622
 30
0.0
 11
85.9973365115
 21
-9.5980629604
 31
0.0
  0
LINE
  5
B9
330
1F
100
AcDbEntity
  8
0
  6
Continuous
 62
     7
370
    25
100
AcDbLine
 10
86.1379478237
 20
-13.0312414622
 30
0.0
 11
87.6366913221
 21
-12.9698580271
 31
0.0
  0
LINE
  5
BA
330
1F
100
AcDbEntity
  8
0
  6
Continuous
 62
     7
370
    25
100
AcDbLine
 10
87.6366913221
 20
-12.9698580271
 30
0.0
 11
87.4954237337
 21
-9.5206558269
 31
0.0
  0
SPLINE
  5
BB
330
1F
100
AcDbEntity
  8
0
  6
Continuous
 62
     7
370
    25
100
AcDbSpline
210
0.0
220
0.0
230
1.0
 70
     8
 71
     3
 72
     9
 73
     5
 74
     0
 42
0.00000001
 43
0.00000001
 40
0.2693274361766392
 40
0.2693274361766392
 40
0.2693274361766392
 40
0.2693274361766392
 40
0.2763478174214306
 40
0.2817236018785435
 40
0.2817236018785435
 40
0.2817236018785435
 40
0.2817236018785435
 10
92.70469168606654
 20
-9.22417111431577
 30
0.0
 10
91.72152095967684
 20
-9.284025004395364
 30
0.0
 10
89.9852710840666
 20
-9.385998247174014
 30
0.0
 10
88.24861945814231
 20
-9.480852511837929
 30
0.0
 10
87.49542373371672
 20
-9.520655826778567
 30
0.0
  0
LINE
  5
BC
330
1F
100
AcDbEntity
  8
0
  6
Continuous
 62
     7
370
    25
100
AcDbLine
 10
92.881281355
 20
-12.645830741
 30
0.0
 11
92.7046916861
 21
-9.2241711144
 31
0.0
  0
LINE
  5
BD
330
1F
100
AcDbEntity
  8
0
  6
Continuous
 62
     7
370
    25
100
AcDbLine
 10
92.881281355
 20
-12.645830741
 30
0.0
 11
94.3792876921
 21
-12.5685195903
 31
0.0
  0
LINE
  5
BE
330
1F
100
AcDbEntity
  8
0
  6
Continuous
 62
     7
370
    25
100
AcDbLine
 10
94.3792876921
 20
-12.5685195903
 30
0.0
 11
94.2019005097
 21
-9.1314070805
 31
0.0
  0
SPLINE
  5
BF
330
1F
100
AcDbEntity
  8
0
  6
Continuous
 62
     7
370
    25
100
AcDbSpline
210
0.0
220
0.0
230
1.0
 70
     8
 71
     3
 72
    10
 73
     6
 74
     0
 42
0.00000001
 43
0.00000001
 40
0.2533595535240097
 40
0.2533595535240097
 40
0.2533595535240097
 40
0.2533595535240097
 40
0.2534031881311994
 40
0.2610712062724442
 40
0.2657635674695674
 40
0.2657635674695674
 40
0.2657635674695674
 40
0.2657635674695674
 10
99.41134385431336
 20
-8.784158720868296
 30
0.0
 10
99.40523674691534
 20
-8.784587335043895
 30
0.0
 10
98.32591154843998
 20
-8.8603244881163
 30
0.0
 10
96.58958474503483
 20
-8.978479583873746
 30
0.0
 10
94.858955793097
 20
-9.089992453075808
 30
0.0
 10
94.2019005097309
 20
-9.131407080384163
 30
0.0
  0
LINE
  5
C0
330
1F
100
AcDbEntity
  8
0
  6
Continuous
 62
     7
370
    25
100
AcDbLine
 10
99.6199259401
 20
-12.1949194272
 30
0.0
 11
99.4113438543
 21
-8.784158721
 31
0.0
  0
LINE
  5
C1
330
1F
100
AcDbEntity
  8
0
  6
Continuous
 62
     7
370
    25
100
AcDbLine
 10
99.6199259401
 20
-12.1949194272
 30
0.0
 11
101.1171289127
 21
-12.1033592898
 31
0.0
  0
LINE
  5
C2
330
1F
100
AcDbEntity
  8
0
  6
Continuous
 62
     7
370
    25
100
AcDbLine
 10
101.1171289127
 20
-12.1033592898
 30
0.0
 11
100.907634373
 21
-8.6776780202
 31
0.0
  0
SPLINE
  5
C3
330
1F
100
AcDbEntity
  8
0
  6
Continuous
 62
     7
370
    25
100
AcDbSpline
210
0.0
220
0.0
230
1.0
 70
     8
 71
     3
 72
    10
 73
     6
 74
     0
 42
0.00000001
 43
0.00000001
 40
0.2373857847630829
 40
0.2373857847630829
 40
0.2373857847630829
 40
0.2373857847630829
 40
0.2380455706446768
 40
0.2457255541852033
 40
0.2497956970524421
 40
0.2497956970524421
 40
0.2497956970524421
 40
0.2497956970524421
 10
106.1163023754882
 20
-8.284484968235502
 30
0.0
 10
106.0240167324694
 20
-8.291746397479539
 30
0.0
 10
104.8575008603543
 20
-8.383344682444122
 30
0.0
 10
103.1214025353275
 20
-8.516131052931446
 30
0.0
 10
101.4772131938139
 20
-8.636586912262745
 30
0.0
 10
100.9076343729457
 20
-8.67767802010587
 30
0.0
  0
LINE
  5
C4
330
1F
100
AcDbEntity
  8
0
  6
Continuous
 62
     7
370
    25
100
AcDbLine
 10
106.3538786374
 20
-11.6848363976
 30
0.0
 11
106.1163023755
 21
-8.2844849683
 31
0.0
  0
LINE
  5
C5
330
1F
100
AcDbEntity
  8
0
  6
Continuous
 62
     7
370
    25
100
AcDbLine
 10
106.3538786374
 20
-11.6848363976
 30
0.0
 11
107.8502308186
 21
-11.5802890397
 31
0.0
  0
LINE
  5
C6
330
1F
100
AcDbEntity
  8
0
  6
Continuous
 62
     7
370
    25
100
AcDbLine
 10
107.8502308186
 20
-11.5802890397
 30
0.0
 11
107.6116472509
 21
-8.1655203733
 31
0.0
  0
SPLINE
  5
C7
330
1F
100
AcDbEntity
  8
0
  6
Continuous
 62
     7
370
    25
100
AcDbSpline
210
0.0
220
0.0
230
1.0
 70
     8
 71
     3
 72
    10
 73
     6
 74
     0
 42
0.00000001
 43
0.00000001
 40
0.2214108811404203
 40
0.2214108811404203
 40
0.2214108811404203
 40
0.2214108811404203
 40
0.2227085242052342
 40
0.230370632307142
 40
0.2338219393355389
 40
0.2338219393355389
 40
0.2338219393355389
 40
0.2338219393355389
 10
112.8175242776938
 20
-7.73110459784951
 30
0.0
 10
112.6361348887495
 20
-7.74677529915734
 30
0.0
 10
111.38367517464
 20
-7.85460244009927
 30
0.0
 10
109.6484590184951
 20
-8.00038339818977
 30
0.0
 10
108.0943221649727
 20
-8.126698812160297
 30
0.0
 10
107.6116472509335
 20
-8.165520373203169
 30
0.0
  0
LINE
  5
C8
330
1F
100
AcDbEntity
  8
0
  6
Continuous
 62
     7
370
    25
100
AcDbLine
 10
113.0809334216
 20
-11.1217860603
 30
0.0
 11
112.8175242777
 21
-7.7311045979
 31
0.0
  0
LINE
  5
C9
330
1F
100
AcDbEntity
  8
0
  6
Continuous
 62
     7
370
    25
100
AcDbLine
 10
113.0809334216
 20
-11.1217860603
 30
0.0
 11
114.5764274483
 21
-11.0056068186
 31
0.0
  0
LINE
  5
CA
330
1F
100
AcDbEntity
  8
0
  6
Continuous
 62
     7
370
    25
100
AcDbLine
 10
114.5764274483
 20
-11.0056068186
 30
0.0
 11
114.3119186833
 21
-7.6007707044
 31
0.0
  0
SPLINE
  5
CB
330
1F
100
AcDbEntity
  8
0
  6
Continuous
 62
     7
370
    25
100
AcDbSpline
210
0.0
220
0.0
230
1.0
 70
     8
 71
     3
 72
    10
 73
     6
 74
     0
 42
0.00000001
 43
0.00000001
 40
0.2054267843127096
 40
0.2054267843127096
 40
0.2054267843127096
 40
0.2054267843127096
 40
0.2074531849492214
 40
0.2150665967816933
 40
0.2178470412037649
 40
0.2178470412037649
 40
0.2178470412037649
 40
0.2178470412037649
 10
119.5183380861308
 20
-7.12796388636137
 30
0.0
 10
119.2352593616757
 20
-7.154426495300258
 30
0.0
 10
117.8885695259078
 20
-7.279745796140809
 30
0.0
 10
116.1531285408304
 20
-7.43775113859926
 30
0.0
 10
114.7005242850623
 20
-7.566559551413362
 30
0.0
 10
114.3119186833033
 20
-7.600770704264074
 30
0.0
  0
LINE
  5
CC
330
1F
100
AcDbEntity
  8
0
  6
Continuous
 62
     7
370
    25
100
AcDbLine
 10
119.805516895
 20
-10.5093409882
 30
0.0
 11
119.5183380861
 21
-7.1279638864
 31
0.0
  0
LINE
  5
CD
330
1F
100
AcDbEntity
  8
0
  6
Continuous
 62
     7
370
    25
100
AcDbLine
 10
119.805516895
 20
-10.5093409882
 30
0.0
 11
121.3001362155
 21
-10.3824036537
 31
0.0
  0
LINE
  5
CE
330
1F
100
AcDbEntity
  8
0
  6
Continuous
 62
     7
370
    25
100
AcDbLine
 10
121.3001362155
 20
-10.3824036537
 30
0.0
 11
121.0117863476
 21
-6.987237957
 31
0.0
  0
SPLINE
  5
CF
330
1F
100
AcDbEntity
  8
0
  6
Continuous
 62
     7
370
    25
100
AcDbSpline
210
0.0
220
0.0
230
1.0
 70
     8
 71
     3
 72
    10
 73
     6
 74
     0
 42
0.00000001
 43
0.00000001
 40
0.1894388487426551
 40
0.1894388487426551
 40
0.1894388487426551
 40
0.1894388487426551
 40
0.1923395725049364
 40
0.1998747389764339
 40
0.2018629520050663
 40
0.2018629520050663
 40
0.2018629520050663
 40
0.2018629520050663
 10
126.2165313475453
 20
-6.479387720060722
 30
0.0
 10
125.8115717340191
 20
-6.519932580987403
 30
0.0
 10
124.3545720176958
 20
-6.66497473828661
 30
0.0
 10
122.6196249643241
 20
-6.833972295290693
 30
0.0
 10
121.2894916160564
 20
-6.960862138310157
 30
0.0
 10
121.0117863475424
 20
-6.987237956924984
 30
0.0
  0
LINE
  5
D0
330
1F
100
AcDbEntity
  8
0
  6
Continuous
 62
     7
370
    25
100
AcDbLine
 10
126.5255454822
 20
-9.8519568225
 30
0.0
 11
126.2165313476
 21
-6.4793877201
 31
0.0
  0
LINE
  5
D1
330
1F
100
AcDbEntity
  8
0
  6
Continuous
 62
     7
370
    25
100
AcDbLine
 10
126.5255454822
 20
-9.8519568225
 30
0.0
 11
128.0192883953
 21
-9.715091525
 31
0.0
  0
LINE
  5
D2
330
1F
100
AcDbEntity
  8
0
  6
Continuous
 62
     7
370
    25
100
AcDbLine
 10
128.0192883953
 20
-9.715091525
 30
0.0
 11
127.7090284389
 21
-6.328925569
 31
0.0
  0
SPLINE
  5
D3
330
1F
100
AcDbEntity
  8
0
  6
Continuous
 62
     7
370
    25
100
AcDbSpline
210
0.0
220
0.0
230
1.0
 70
     8
 71
     3
 72
    10
 73
     6
 74
     0
 42
0.00000001
 43
0.00000001
 40
0.1734477918753898
 40
0.1734477918753898
 40
0.1734477918753898
 40
0.1734477918753898
 40
0.177428241169581
 40
0.1848550826164702
 40
0.1858750203380161
 40
0.1858750203380161
 40
0.1858750203380161
 40
0.1858750203380161
 10
132.9118087927253
 20
-5.78844248779342
 30
0.0
 10
132.3564639347457
 20
-5.847483355087453
 30
0.0
 10
130.7648163533269
 20
-6.015519811599193
 30
0.0
 10
129.0304393161445
 20
-6.194586604447916
 30
0.0
 10
127.8513988000554
 20
-6.314476041388311
 30
0.0
 10
127.7090284388511
 20
-6.328925568859758
 30
0.0
  0
LINE
  5
D4
330
1F
100
AcDbEntity
  8
0
  6
Continuous
 62
     7
370
    25
100
AcDbLine
 10
133.2410790361
 20
-9.1525562245
 30
0.0
 11
132.9118087927
 21
-5.7884424879
 31
0.0
  0
LINE
  5
D5
330
1F
100
AcDbEntity
  8
0
  6
Continuous
 62
     7
370
    25
100
AcDbLine
 10
133.2410790361
 20
-9.1525562245
 30
0.0
 11
134.7339452823
 21
-9.0064385631
 31
0.0
  0
LINE
  5
D6
330
1F
100
AcDbEntity
  8
0
  6
Continuous
 62
     7
370
    25
100
AcDbLine
 10
134.7339452823
 20
-9.0064385631
 30
0.0
 11
134.4033620641
 21
-5.6289103236
 31
0.0
  0
SPLINE
  5
D7
330
1F
100
AcDbEntity
  8
0
  6
Continuous
 62
     7
370
    25
100
AcDbSpline
210
0.0
220
0.0
230
1.0
 70
     8
 71
     3
 72
     9
 73
     5
 74
     0
 42
0.00000001
 43
0.00000001
 40
0.1574565692293244
 40
0.1574565692293244
 40
0.1574565692293244
 40
0.1574565692293244
 40
0.1627784325723483
 40
0.1698839673654682
 40
0.1698839673654682
 40
0.1698839673654682
 40
0.1698839673654682
 10
139.602949747233
 20
-5.057872262528205
 30
0.0
 10
138.8609179079115
 20
-5.141064030342731
 30
0.0
 10
137.1279713894616
 20
-5.333688218541633
 30
0.0
 10
135.3945802596859
 20
-5.5222739427829
 30
0.0
 10
134.4033620641015
 20
-5.628910323532542
 30
0.0
  0
LINE
  5
D8
330
1F
100
AcDbEntity
  8
0
  6
Continuous
 62
     7
370
    25
100
AcDbLine
 10
139.9510937695
 20
-8.4138492525
 30
0.0
 11
139.6029497472
 21
-5.0578722626
 31
0.0
  0
LINE
  5
D9
330
1F
100
AcDbEntity
  8
0
  6
Continuous
 62
     7
370
    25
100
AcDbLine
 10
139.9510937695
 20
-8.4138492525
 30
0.0
 11
141.4430870785
 21
-8.2590721031
 31
0.0
  0
LINE
  5
DA
330
1F
100
AcDbEntity
  8
0
  6
Continuous
 62
     7
370
    25
100
AcDbLine
 10
141.4430870785
 20
-8.2590721031
 30
0.0
 11
141.0935645498
 21
-4.8898068316
 31
0.0
  0
SPLINE
  5
DB
330
1F
100
AcDbEntity
  8
0
  6
Continuous
 62
     7
370
    25
100
AcDbSpline
210
0.0
220
0.0
230
1.0
 70
     8
 71
     3
 72
     9
 73
     5
 74
     0
 42
0.00000001
 43
0.00000001
 40
0.1414638976755981
 40
0.1414638976755981
 40
0.1414638976755981
 40
0.1414638976755981
 40
0.1484480050854347
 40
0.1538927469692493
 40
0.1538927469692493
 40
0.1538927469692493
 40
0.1538927469692493
 10
146.2904438545406
 20
-4.289277355449224
 30
0.0
 10
145.3172611446689
 20
-4.403824048643552
 30
0.0
 10
143.5851562663351
 20
-4.605644888910031
 30
0.0
 10
141.8526223629137
 20
-4.803744785836972
 30
0.0
 10
141.0935645497944
 20
-4.889806831541954
 30
0.0
  0
LINE
  5
DC
330
1F
100
AcDbEntity
  8
0
  6
Continuous
 62
     7
370
    25
100
AcDbLine
 10
146.6567093534
 20
-7.6372104746
 30
0.0
 11
146.2904438545
 21
-4.2892773554
 31
0.0
  0
LINE
  5
DD
330
1F
100
AcDbEntity
  8
0
  6
Continuous
 62
     7
370
    25
100
AcDbLine
 10
146.6567093534
 20
-7.6372104746
 30
0.0
 11
148.1478127838
 21
-7.4740830397
 31
0.0
  0
LINE
  5
DE
330
1F
100
AcDbEntity
  8
0
  6
Continuous
 62
     7
370
    25
100
AcDbLine
 10
148.1478127838
 20
-7.4740830397
 30
0.0
 11
147.7801127809
 21
-4.1130375101
 31
0.0
  0
SPLINE
  5
DF
330
1F
100
AcDbEntity
  8
0
  6
Continuous
 62
     7
370
    25
100
AcDbSpline
210
0.0
220
0.0
230
1.0
 70
     8
 71
     3
 72
    10
 73
     6
 74
     0
 42
0.00000001
 43
0.00000001
 40
0.125467218656024
 40
0.125467218656024
 40
0.125467218656024
 40
0.125467218656024
 40
0.1276760977527749
 40
0.1344944392438565
 40
0.1379000787118322
 40
0.1379000787118322
 40
0.1379000787118322
 40
0.1379000787118322
 10
152.9753474852299
 20
-3.484234690050153
 30
0.0
 10
152.6677567894137
 20
-3.522122789173529
 30
0.0
 10
151.4106405642368
 20
-3.676490447610813
 30
0.0
 10
149.6789329716146
 20
-3.886419696313988
 30
0.0
 10
148.2545959738606
 20
-4.056615294791521
 30
0.0
 10
147.7801127808428
 20
-4.11303751000229
 30
0.0
  0
LINE
  5
E0
330
1F
100
AcDbEntity
  8
0
  6
Continuous
 62
     7
370
    25
100
AcDbLine
 10
153.358997228
 20
-6.8242892528
 30
0.0
 11
152.9753474852
 21
-3.4842346901
 31
0.0
  0
LINE
  5
E1
330
1F
100
AcDbEntity
  8
0
  6
Continuous
 62
     7
370
    25
100
AcDbLine
 10
153.358997228
 20
-6.8242892528
 30
0.0
 11
154.8491988925
 21
-6.6531197481
 31
0.0
  0
LINE
  5
E2
330
1F
100
AcDbEntity
  8
0
  6
Continuous
 62
     7
370
    25
100
AcDbLine
 10
154.8491988925
 20
-6.6531197481
 30
0.0
 11
154.4640423165
 21
-3.2999466965
 31
0.0
  0
SPLINE
  5
E3
330
1F
100
AcDbEntity
  8
0
  6
Continuous
 62
     7
370
    25
100
AcDbSpline
210
0.0
220
0.0
230
1.0
 70
     8
 71
     3
 72
    10
 73
     6
 74
     0
 42
0.00000001
 43
0.00000001
 40
0.1094698169253893
 40
0.1094698169253893
 40
0.1094698169253893
 40
0.1094698169253893
 40
0.1143914245660113
 40
0.1209727662677353
 40
0.1219033993544804
 40
0.1219033993544804
 40
0.1219033993544804
 40
0.1219033993544804
 10
159.6561389023522
 20
-2.643307970242668
 30
0.0
 10
158.97125041426
 20
-2.731340623673449
 30
0.0
 10
157.370329086615
 20
-2.93572080310877
 30
0.0
 10
155.6394953510499
 20
-3.153547750155325
 30
0.0
 10
154.5936153763379
 20
-3.283827192769122
 30
0.0
 10
154.4640423165166
 20
-3.299946696418516
 30
0.0
  0
LINE
  5
E4
330
1F
100
AcDbEntity
  8
0
  6
Continuous
 62
     7
370
    25
100
AcDbLine
 10
160.0567754638
 20
-5.9754410553
 30
0.0
 11
159.6561389024
 21
-2.6433079703
 31
0.0
  0
LINE
  5
E5
330
1F
100
AcDbEntity
  8
0
  6
Continuous
 62
     7
370
    25
100
AcDbLine
 10
160.0567754638
 20
-5.9754410553
 30
0.0
 11
161.5460494106
 21
-5.7963793018
 31
0.0
  0
LINE
  5
E6
330
1F
100
AcDbEntity
  8
0
  6
Continuous
 62
     7
370
    25
100
AcDbLine
 10
161.5460494106
 20
-5.7963793018
 30
0.0
 11
161.1438360333
 21
-2.4511316872
 31
0.0
  0
SPLINE
  5
E7
330
1F
100
AcDbEntity
  8
0
  6
Continuous
 62
     7
370
    25
100
AcDbSpline
210
0.0
220
0.0
230
1.0
 70
     8
 71
     3
 72
    10
 73
     6
 74
     0
 42
0.00000001
 43
0.00000001
 40
0.0934727431569334
 40
0.0934727431569334
 40
0.0934727431569334
 40
0.0934727431569334
 40
0.095440679275495
 40
0.1016186621989038
 40
0.1059059971561781
 40
0.1059059971561781
 40
0.1059059971561781
 40
0.1059059971561781
 10
166.3322311004796
 20
-1.766918060494823
 30
0.0
 10
166.0585678807554
 20
-1.803594668593034
 30
0.0
 10
164.9257370561652
 20
-1.955030403421474
 30
0.0
 10
163.1963363202657
 20
-2.183605110967406
 30
0.0
 10
161.7403626215091
 20
-2.373694696171654
 30
0.0
 10
161.1438360333035
 20
-2.451131687119136
 30
0.0
  0
LINE
  5
E8
330
1F
100
AcDbEntity
  8
0
  6
Continuous
 62
     7
370
    25
100
AcDbLine
 10
166.74997005
 20
-5.090922122
 30
0.0
 11
166.3322311005
 21
-1.7669180606
 31
0.0
  0
LINE
  5
E9
330
1F
100
AcDbEntity
  8
0
  6
Continuous
 62
     7
370
    25
100
AcDbLine
 10
166.74997005
 20
-5.090922122
 30
0.0
 11
168.238263185
 21
-4.9038832378
 31
0.0
  0
LINE
  5
EA
330
1F
100
AcDbEntity
  8
0
  6
Continuous
 62
     7
370
    25
100
AcDbLine
 10
168.238263185
 20
-4.9038832378
 30
0.0
 11
167.8188795665
 21
-1.5667923278
 31
0.0
  0
SPLINE
  5
EB
330
1F
100
AcDbEntity
  8
0
  6
Continuous
 62
     7
370
    25
100
AcDbSpline
210
0.0
220
0.0
230
1.0
 70
     8
 71
     3
 72
    11
 73
     7
 74
     0
 42
0.00000001
 43
0.00000001
 40
0.077481410800285
 40
0.077481410800285
 40
0.077481410800285
 40
0.077481410800285
 40
0.0778135054956683
 40
0.0835323726867181
 40
0.089410044022173
 40
0.0899089241113289
 40
0.0899089241113289
 40
0.0899089241113289
 40
0.0899089241113289
 10
173.0011513168067
 20
-0.8552020423029326
 30
0.0
 10
172.955003927388
 20
-0.8616402517656614
 30
0.0
 10
172.1141648299271
 20
-0.9789027343885656
 30
0.0
 10
170.4563402493541
 20
-1.208443527926014
 30
0.0
 10
168.7748281824635
 20
-1.437494811163555
 30
0.0
 10
167.8882436793193
 20
-1.557415340844102
 30
0.0
 10
167.8188795665338
 20
-1.56679232771877
 30
0.0
  0
LINE
  5
EC
330
1F
100
AcDbEntity
  8
0
  6
Continuous
 62
     7
370
    25
100
AcDbLine
 10
173.4362211204
 20
-4.1706821757
 30
0.0
 11
173.0011513168
 21
-0.8552020424
 31
0.0
  0
LINE
  5
ED
330
1F
100
AcDbEntity
  8
0
  6
Continuous
 62
     7
370
    25
100
AcDbLine
 10
173.4362211204
 20
-4.1706821757
 30
0.0
 11
174.9234707951
 21
-3.9755196659
 31
0.0
  0
LINE
  5
EE
330
1F
100
AcDbEntity
  8
0
  6
Continuous
 62
     7
370
    25
100
AcDbLine
 10
174.9234707951
 20
-3.9755196659
 30
0.0
 11
174.4866966542
 21
-0.6470515102
 31
0.0
  0
LINE
  5
EF
330
1F
100
AcDbEntity
  8
0
  6
Continuous
 62
     7
370
    25
100
AcDbLine
 10
69.599987982
 20
10.9930382502
 30
0.0
 11
71.0998091689
 21
10.9698777765
 31
0.0
  0
LINE
  5
F0
330
1F
100
AcDbEntity
  8
0
  6
Continuous
 62
     7
370
    25
100
AcDbLine
 10
71.1505346743
 20
14.2547496171
 30
0.0
 11
71.0998091689
 21
10.9698777765
 31
0.0
  0
SPLINE
  5
F1
330
1F
100
AcDbEntity
  8
0
  6
Continuous
 62
     7
370
    25
100
AcDbSpline
210
0.0
220
0.0
230
1.0
 70
     8
 71
     3
 72
     9
 73
     5
 74
     0
 42
0.00000001
 43
0.00000001
 40
0.3080807598257417
 40
0.3080807598257417
 40
0.3080807598257417
 40
0.3080807598257417
 40
0.313845140813184
 40
0.320585785781647
 40
0.320585785781647
 40
0.320585785781647
 40
0.320585785781647
 10
76.4119677302348
 20
14.10680745748885
 30
0.0
 10
75.60364761264066
 20
14.13374143478607
 30
0.0
 10
73.84996948905449
 20
14.18799434301153
 30
0.0
 10
72.0960335370598
 20
14.2332574830742
 30
0.0
 10
71.15053467427086
 20
14.25474961714237
 30
0.0
  0
LINE
  5
F2
330
1F
100
AcDbEntity
  8
0
  6
Continuous
 62
     7
370
    25
100
AcDbLine
 10
76.4119677302
 20
14.1068074575
 30
0.0
 11
76.3164261537
 21
10.804506759
 31
0.0
  0
LINE
  5
F3
330
1F
100
AcDbEntity
  8
0
  6
Continuous
 62
     7
370
    25
100
AcDbLine
 10
76.3164261537
 20
10.804506759
 30
0.0
 11
77.8157987595
 21
10.7611271685
 31
0.0
  0
LINE
  5
F4
330
1F
100
AcDbEntity
  8
0
  6
Continuous
 62
     7
370
    25
100
AcDbLine
 10
77.9110863505
 20
14.0546484317
 30
0.0
 11
77.8157987595
 21
10.7611271685
 31
0.0
  0
SPLINE
  5
F5
330
1F
100
AcDbEntity
  8
0
  6
Continuous
 62
     7
370
    25
100
AcDbSpline
210
0.0
220
0.0
230
1.0
 70
     8
 71
     3
 72
     9
 73
     5
 74
     0
 42
0.00000001
 43
0.00000001
 40
0.292015951779709
 40
0.292015951779709
 40
0.292015951779709
 40
0.292015951779709
 40
0.2990016171871945
 40
0.3045170200432538
 40
0.3045170200432538
 40
0.3045170200432538
 40
0.3045170200432538
 10
83.1685118326612
 20
13.83890469922927
 30
0.0
 10
82.18941359572892
 20
13.88365007212103
 30
0.0
 10
80.43707837445407
 20
13.95917922326437
 30
0.0
 10
78.68441424191009
 20
14.02661360956934
 30
0.0
 10
77.91108635045858
 20
14.05464843166782
 30
0.0
  0
LINE
  5
F6
330
1F
100
AcDbEntity
  8
0
  6
Continuous
 62
     7
370
    25
100
AcDbLine
 10
83.1685118327
 20
13.8389046992
 30
0.0
 11
83.0329624125
 21
10.5293173314
 31
0.0
  0
LINE
  5
F7
330
1F
100
AcDbEntity
  8
0
  6
Continuous
 62
     7
370
    25
100
AcDbLine
 10
83.0329624125
 20
10.5293173314
 30
0.0
 11
84.5317059108
 21
10.4679338963
 31
0.0
  0
LINE
  5
F8
330
1F
100
AcDbEntity
  8
0
  6
Continuous
 62
     7
370
    25
100
AcDbLine
 10
84.6668843759
 20
13.7684635139
 30
0.0
 11
84.5317059108
 21
10.4679338963
 31
0.0
  0
SPLINE
  5
F9
330
1F
100
AcDbEntity
  8
0
  6
Continuous
 62
     7
370
    25
100
AcDbSpline
210
0.0
220
0.0
230
1.0
 70
     8
 71
     3
 72
    10
 73
     6
 74
     0
 42
0.00000001
 43
0.00000001
 40
0.2759523516360233
 40
0.2759523516360233
 40
0.2759523516360233
 40
0.2759523516360233
 40
0.2763478174214306
 40
0.2839409045468007
 40
0.2884522074754602
 40
0.2884522074754602
 40
0.2884522074754602
 40
0.2884522074754602
 10
89.92098577213663
 20
13.49251917679782
 30
0.0
 10
89.86558902446119
 20
13.49565819166835
 30
0.0
 10
88.74654628643516
 20
13.55892172771672
 30
0.0
 10
86.99529563818224
 20
13.65328539506021
 30
0.0
 10
85.299103398082
 20
13.73792712831266
 30
0.0
 10
84.66688437593126
 20
13.76846351394006
 30
0.0
  0
LINE
  5
FA
330
1F
100
AcDbEntity
  8
0
  6
Continuous
 62
     7
370
    25
100
AcDbLine
 10
89.9209857721
 20
13.4925191768
 30
0.0
 11
89.7498766796
 21
10.1770530031
 31
0.0
  0
LINE
  5
FB
330
1F
100
AcDbEntity
  8
0
  6
Continuous
 62
     7
370
    25
100
AcDbLine
 10
89.7498766796
 20
10.1770530031
 30
0.0
 11
91.2478830167
 21
10.0997418524
 31
0.0
  0
LINE
  5
FC
330
1F
100
AcDbEntity
  8
0
  6
Continuous
 62
     7
370
    25
100
AcDbLine
 10
91.4185129467
 20
13.405923615
 30
0.0
 11
91.2478830167
 21
10.0997418524
 31
0.0
  0
SPLINE
  5
FD
330
1F
100
AcDbEntity
  8
0
  6
Continuous
 62
     7
370
    25
100
AcDbSpline
210
0.0
220
0.0
230
1.0
 70
     8
 71
     3
 72
    10
 73
     6
 74
     0
 42
0.00000001
 43
0.00000001
 40
0.2598918310469248
 40
0.2598918310469248
 40
0.2598918310469248
 40
0.2598918310469248
 40
0.2610712062724442
 40
0.2687218374479274
 40
0.2723886038741336
 40
0.2723886038741336
 40
0.2723886038741336
 40
0.2723886038741336
 10
96.6682234741876
 20
13.0763324089036
 30
0.0
 10
96.50311649121349
 20
13.08731089583348
 30
0.0
 10
95.26692917032106
 20
13.16908651538408
 30
0.0
 10
93.51710393912823
 20
13.28032321550919
 30
0.0
 10
91.9320844488581
 20
13.3756375068633
 30
0.0
 10
91.41851294670283
 20
13.40592361500263
 30
0.0
  0
LINE
  5
FE
330
1F
100
AcDbEntity
  8
0
  6
Continuous
 62
     7
370
    25
100
AcDbLine
 10
96.6682234742
 20
13.0763324089
 30
0.0
 11
96.4651742993
 21
9.7560465635
 31
0.0
  0
LINE
  5
FF
330
1F
100
AcDbEntity
  8
0
  6
Continuous
 62
     7
370
    25
100
AcDbLine
 10
96.4651742993
 20
9.7560465635
 30
0.0
 11
97.962377272
 21
9.6644864261
 31
0.0
  0
LINE
  5
100
330
1F
100
AcDbEntity
  8
0
  6
Continuous
 62
     7
370
    25
100
AcDbLine
 10
98.1648463298
 20
12.9752861241
 30
0.0
 11
97.962377272
 21
9.6644864261
 31
0.0
  0
SPLINE
  5
101
330
1F
100
AcDbEntity
  8
0
  6
Continuous
 62
     7
370
    25
100
AcDbSpline
210
0.0
220
0.0
230
1.0
 70
     8
 71
     3
 72
    10
 73
     6
 74
     0
 42
0.00000001
 43
0.00000001
 40
0.2438336269972698
 40
0.2438336269972698
 40
0.2438336269972698
 40
0.2438336269972698
 40
0.2457255541852033
 40
0.2534031881311994
 40
0.2563280798311243
 40
0.2563280798311243
 40
0.2563280798311243
 40
0.2563280798311243
 10
103.4103454752938
 20
12.59770243813291
 30
0.0
 10
103.1456511295542
 20
12.61766099311152
 30
0.0
 10
101.8067493940367
 20
12.71794099887306
 30
0.0
 10
100.0582786922362
 20
12.84430655374794
 30
0.0
 10
98.5742613932781
 20
12.94722899409398
 30
0.0
 10
98.16484632977577
 20
12.97528612409415
 30
0.0
  0
LINE
  5
102
330
1F
100
AcDbEntity
  8
0
  6
Continuous
 62
     7
370
    25
100
AcDbLine
 10
103.4103454753
 20
12.5977024381
 30
0.0
 11
103.1780845672
 21
9.2734279327
 31
0.0
  0
LINE
  5
103
330
1F
100
AcDbEntity
  8
0
  6
Continuous
 62
     7
370
    25
100
AcDbLine
 10
103.1780845672
 20
9.2734279327
 30
0.0
 11
104.6744367484
 21
9.1688805749
 31
0.0
  0
LINE
  5
104
330
1F
100
AcDbEntity
  8
0
  6
Continuous
 62
     7
370
    25
100
AcDbLine
 10
104.9060249321
 20
12.4835265964
 30
0.0
 11
104.6744367484
 21
9.1688805749
 31
0.0
  0
SPLINE
  5
105
330
1F
100
AcDbEntity
  8
0
  6
Continuous
 62
     7
370
    25
100
AcDbSpline
210
0.0
220
0.0
230
1.0
 70
     8
 71
     3
 72
    10
 73
     6
 74
     0
 42
0.00000001
 43
0.00000001
 40
0.2277831005198854
 40
0.2277831005198854
 40
0.2277831005198854
 40
0.2277831005198854
 40
0.230370632307142
 40
0.2380455706446768
 40
0.2402698732456541
 40
0.2402698732456541
 40
0.2402698732456541
 40
0.2402698732456541
 10
110.1449886890095
 20
12.06267866790506
 30
0.0
 10
109.7832022515239
 20
12.09284740316083
 30
0.0
 10
108.3482384398658
 20
12.21161013149621
 30
0.0
 10
106.601898569791
 20
12.35173173938473
 30
0.0
 10
105.2171772917993
 20
12.45948838447391
 30
0.0
 10
104.906024932059
 20
12.48352659626244
 30
0.0
  0
LINE
  5
106
330
1F
100
AcDbEntity
  8
0
  6
Continuous
 62
     7
370
    25
100
AcDbLine
 10
110.144988689
 20
12.0626786679
 30
0.0
 11
109.8864851961
 21
8.7351442157
 31
0.0
  0
LINE
  5
107
330
1F
100
AcDbEntity
  8
0
  6
Continuous
 62
     7
370
    25
100
AcDbLine
 10
109.8864851961
 20
8.7351442157
 30
0.0
 11
111.3819792227
 21
8.618964974
 31
0.0
  0
LINE
  5
108
330
1F
100
AcDbEntity
  8
0
  6
Continuous
 62
     7
370
    25
100
AcDbLine
 10
111.6397261553
 20
11.936760754
 30
0.0
 11
111.3819792227
 21
8.618964974
 31
0.0
  0
SPLINE
  5
109
330
1F
100
AcDbEntity
  8
0
  6
Continuous
 62
     7
370
    25
100
AcDbSpline
210
0.0
220
0.0
230
1.0
 70
     8
 71
     3
 72
    10
 73
     6
 74
     0
 42
0.00000001
 43
0.00000001
 40
0.2117290613858217
 40
0.2117290613858217
 40
0.2117290613858217
 40
0.2117290613858217
 40
0.2150665967816933
 40
0.2227085242052342
 40
0.2242193447810567
 40
0.2242193447810567
 40
0.2242193447810567
 40
0.2242193447810567
 10
116.8768200349867
 20
11.47606279366256
 30
0.0
 10
116.4104677883178
 20
11.51840908281294
 30
0.0
 10
114.8762114022044
 20
11.65659994678159
 30
0.0
 10
113.1304470895419
 20
11.80946775726396
 30
0.0
 10
111.8509377948229
 20
11.9187896743981
 30
0.0
 10
111.6397261552667
 20
11.93676075382815
 30
0.0
  0
LINE
  5
10A
330
1F
100
AcDbEntity
  8
0
  6
Continuous
 62
     7
370
    25
100
AcDbLine
 10
116.876820035
 20
11.4760627937
 30
0.0
 11
116.5939778539
 21
8.1457471679
 31
0.0
  0
LINE
  5
10B
330
1F
100
AcDbEntity
  8
0
  6
Continuous
 62
     7
370
    25
100
AcDbLine
 10
116.5939778539
 20
8.1457471679
 30
0.0
 11
118.0885971743
 21
8.0188098334
 31
0.0
  0
LINE
  5
10C
330
1F
100
AcDbEntity
  8
0
  6
Continuous
 62
     7
370
    25
100
AcDbLine
 10
118.3706023037
 20
11.3392696214
 30
0.0
 11
118.0885971743
 21
8.0188098334
 31
0.0
  0
SPLINE
  5
10D
330
1F
100
AcDbEntity
  8
0
  6
Continuous
 62
     7
370
    25
100
AcDbSpline
210
0.0
220
0.0
230
1.0
 70
     8
 71
     3
 72
    10
 73
     6
 74
     0
 42
0.00000001
 43
0.00000001
 40
0.1956765808446105
 40
0.1956765808446105
 40
0.1956765808446105
 40
0.1956765808446105
 40
0.1998747389764339
 40
0.2074531849492214
 40
0.2081653034780318
 40
0.2081653034780318
 40
0.2081653034780318
 40
0.2081653034780318
 10
123.6037250663493
 20
10.84235733285603
 30
0.0
 10
123.0174891878338
 20
10.89955951215302
 30
0.0
 10
121.3728512461631
 20
11.05860086640683
 30
0.0
 10
119.6283520380602
 20
11.22296042015291
 30
0.0
 10
118.4700924455082
 20
11.33008309814056
 30
0.0
 10
118.3706023036478
 20
11.33926962121655
 30
0.0
  0
LINE
  5
10E
330
1F
100
AcDbEntity
  8
0
  6
Continuous
 62
     7
370
    25
100
AcDbLine
 10
123.6037250663
 20
10.8423573329
 30
0.0
 11
123.2983728016
 21
7.5097537464
 31
0.0
  0
LINE
  5
10F
330
1F
100
AcDbEntity
  8
0
  6
Continuous
 62
     7
370
    25
100
AcDbLine
 10
123.2983728016
 20
7.5097537464
 30
0.0
 11
124.7921157147
 21
7.3728884489
 31
0.0
  0
LINE
  5
110
330
1F
100
AcDbEntity
  8
0
  6
Continuous
 62
     7
370
    25
100
AcDbLine
 10
125.0965609541
 20
10.6955927941
 30
0.0
 11
124.7921157147
 21
7.3728884489
 31
0.0
  0
SPLINE
  5
111
330
1F
100
AcDbEntity
  8
0
  6
Continuous
 62
     7
370
    25
100
AcDbSpline
210
0.0
220
0.0
230
1.0
 70
     8
 71
     3
 72
     9
 73
     5
 74
     0
 42
0.00000001
 43
0.00000001
 40
0.1796253710261845
 40
0.1796253710261845
 40
0.1796253710261845
 40
0.1796253710261845
 40
0.1848550826164702
 40
0.1921128218683053
 40
0.1921128218683053
 40
0.1921128218683053
 40
0.1921128218683053
 10
130.3258315670054
 20
10.16492859549061
 30
0.0
 10
129.5960071426981
 20
10.24074049649161
 30
0.0
 10
127.8531539527724
 20
10.41997434899437
 30
0.0
 10
126.1098952016518
 20
10.59522576714641
 30
0.0
 10
125.0965609541294
 20
10.69559279413268
 30
0.0
  0
LINE
  5
112
330
1F
100
AcDbEntity
  8
0
  6
Continuous
 62
     7
370
    25
100
AcDbLine
 10
130.325831567
 20
10.1649285955
 30
0.0
 11
129.9994563853
 21
6.8303931488
 31
0.0
  0
LINE
  5
113
330
1F
100
AcDbEntity
  8
0
  6
Continuous
 62
     7
370
    25
100
AcDbLine
 10
129.9994563853
 20
6.8303931488
 30
0.0
 11
131.4923226315
 21
6.6842754873
 31
0.0
  0
LINE
  5
114
330
1F
100
AcDbEntity
  8
0
  6
Continuous
 62
     7
370
    25
100
AcDbLine
 10
131.8177264477
 20
10.0088864114
 30
0.0
 11
131.4923226315
 21
6.6842754873
 31
0.0
  0
SPLINE
  5
115
330
1F
100
AcDbEntity
  8
0
  6
Continuous
 62
     7
370
    25
100
AcDbSpline
210
0.0
220
0.0
230
1.0
 70
     8
 71
     3
 72
     9
 73
     5
 74
     0
 42
0.00000001
 43
0.00000001
 40
0.1635778496824823
 40
0.1635778496824823
 40
0.1635778496824823
 40
0.1635778496824823
 40
0.170067333673418
 40
0.1760616109741342
 40
0.1760616109741342
 40
0.1760616109741342
 40
0.1760616109741342
 10
137.042147124223
 20
9.446760758026487
 30
0.0
 10
136.1370877638431
 20
9.546174612292088
 30
0.0
 10
134.3958031947525
 20
9.735321216453462
 30
0.0
 10
132.6541245336936
 20
9.920804725681336
 30
0.0
 10
131.8177264476815
 20
10.00888641141128
 30
0.0
  0
LINE
  5
116
330
1F
100
AcDbEntity
  8
0
  6
Continuous
 62
     7
370
    25
100
AcDbLine
 10
137.0421471242
 20
9.446760758
 30
0.0
 11
136.69605197
 21
6.1105338933
 31
0.0
  0
LINE
  5
117
330
1F
100
AcDbEntity
  8
0
  6
Continuous
 62
     7
370
    25
100
AcDbLine
 10
136.69605197
 20
6.1105338933
 30
0.0
 11
138.188045279
 21
5.955756744
 31
0.0
  0
LINE
  5
118
330
1F
100
AcDbEntity
  8
0
  6
Continuous
 62
     7
370
    25
100
AcDbLine
 10
138.533103714
 20
9.2819898377
 30
0.0
 11
138.188045279
 21
5.955756744
 31
0.0
  0
SPLINE
  5
119
330
1F
100
AcDbEntity
  8
0
  6
Continuous
 62
     7
370
    25
100
AcDbSpline
210
0.0
220
0.0
230
1.0
 70
     8
 71
     3
 72
    10
 73
     6
 74
     0
 42
0.00000001
 43
0.00000001
 40
0.1475308898210658
 40
0.1475308898210658
 40
0.1475308898210658
 40
0.1475308898210658
 40
0.1484480050854347
 40
0.1555698338519088
 40
0.160014088483988
 40
0.160014088483988
 40
0.160014088483988
 40
0.160014088483988
 10
143.7539707179673
 20
8.689862736303821
 30
0.0
 10
143.6261469058316
 20
8.704641092078438
 30
0.0
 10
142.5056909901403
 20
8.834003432137923
 30
0.0
 10
140.7655228494185
 20
9.032465306182859
 30
0.0
 10
139.1528336239199
 20
9.213088479013734
 30
0.0
 10
138.5331037140105
 20
9.281989837715585
 30
0.0
  0
LINE
  5
11A
330
1F
100
AcDbEntity
  8
0
  6
Continuous
 62
     7
370
    25
100
AcDbLine
 10
143.753970718
 20
8.6898627363
 30
0.0
 11
143.388823782
 21
5.3521540961
 31
0.0
  0
LINE
  5
11B
330
1F
100
AcDbEntity
  8
0
  6
Continuous
 62
     7
370
    25
100
AcDbLine
 10
143.388823782
 20
5.3521540961
 30
0.0
 11
144.8799272124
 21
5.1890266613
 31
0.0
  0
LINE
  5
11C
330
1F
100
AcDbEntity
  8
0
  6
Continuous
 62
     7
370
    25
100
AcDbLine
 10
145.2439735153
 20
8.5166747145
 30
0.0
 11
144.8799272124
 21
5.1890266613
 31
0.0
  0
SPLINE
  5
11D
330
1F
100
AcDbEntity
  8
0
  6
Continuous
 62
     7
370
    25
100
AcDbSpline
210
0.0
220
0.0
230
1.0
 70
     8
 71
     3
 72
    10
 73
     6
 74
     0
 42
0.00000001
 43
0.00000001
 40
0.1314819262861742
 40
0.1314819262861742
 40
0.1314819262861742
 40
0.1314819262861742
 40
0.1344944392438565
 40
0.1414203901385283
 40
0.1439671275528133
 40
0.1439671275528133
 40
0.1439671275528133
 40
0.1439671275528133
 10
150.4623525395866
 20
7.895830964083398
 30
0.0
 10
150.0427492667056
 20
7.946643757105375
 30
0.0
 10
148.6583671274081
 20
8.113573340471714
 30
0.0
 10
146.9188889574179
 20
8.32038626240207
 30
0.0
 10
145.5988772646677
 20
8.47520476174654
 30
0.0
 10
145.2439735152362
 20
8.516674714395295
 30
0.0
  0
LINE
  5
11E
330
1F
100
AcDbEntity
  8
0
  6
Continuous
 62
     7
370
    25
100
AcDbLine
 10
150.4623525396
 20
7.8958309641
 30
0.0
 11
150.0788314253
 21
4.5568962416
 31
0.0
  0
LINE
  5
11F
330
1F
100
AcDbEntity
  8
0
  6
Continuous
 62
     7
370
    25
100
AcDbLine
 10
150.0788314253
 20
4.5568962416
 30
0.0
 11
151.5690330898
 21
4.3857267369
 31
0.0
  0
LINE
  5
120
330
1F
100
AcDbEntity
  8
0
  6
Continuous
 62
     7
370
    25
100
AcDbLine
 10
151.9513982603
 20
7.7145978137
 30
0.0
 11
151.5690330898
 21
4.3857267369
 31
0.0
  0
SPLINE
  5
121
330
1F
100
AcDbEntity
  8
0
  6
Continuous
 62
     7
370
    25
100
AcDbSpline
210
0.0
220
0.0
230
1.0
 70
     8
 71
     3
 72
    10
 73
     6
 74
     0
 42
0.00000001
 43
0.00000001
 40
0.1154332143873258
 40
0.1154332143873258
 40
0.1154332143873258
 40
0.1154332143873258
 40
0.1209727662677353
 40
0.1276760977527749
 40
0.1279181638139389
 40
0.1279181638139389
 40
0.1279181638139389
 40
0.1279181638139389
 10
157.1662320764394
 20
7.065506726641497
 30
0.0
 10
156.3951592894028
 20
7.163091778521226
 30
0.0
 10
154.6908347101112
 20
7.377278414403796
 30
0.0
 10
152.9523644594921
 20
7.592111810076893
 30
0.0
 10
151.9851098927021
 20
7.710473965427036
 30
0.0
 10
151.9513982603069
 20
7.714597813766821
 30
0.0
  0
LINE
  5
122
330
1F
100
AcDbEntity
  8
0
  6
Continuous
 62
     7
370
    25
100
AcDbLine
 10
157.1662320764
 20
7.0655067266
 30
0.0
 11
156.7646437092
 21
3.7254572174
 31
0.0
  0
LINE
  5
123
330
1F
100
AcDbEntity
  8
0
  6
Continuous
 62
     7
370
    25
100
AcDbLine
 10
156.7646437092
 20
3.7254572174
 30
0.0
 11
158.253917656
 21
3.5463954639
 31
0.0
  0
LINE
  5
124
330
1F
100
AcDbEntity
  8
0
  6
Continuous
 62
     7
370
    25
100
AcDbLine
 10
158.6542903561
 20
6.8763339885
 30
0.0
 11
158.253917656
 21
3.5463954639
 31
0.0
  0
SPLINE
  5
125
330
1F
100
AcDbEntity
  8
0
  6
Continuous
 62
     7
370
    25
100
AcDbSpline
210
0.0
220
0.0
230
1.0
 70
     8
 71
     3
 72
    10
 73
     6
 74
     0
 42
0.00000001
 43
0.00000001
 40
0.099384278482158
 40
0.099384278482158
 40
0.099384278482158
 40
0.099384278482158
 40
0.1016186621989038
 40
0.1079376069332799
 40
0.111869451125588
 40
0.111869451125588
 40
0.111869451125588
 40
0.111869451125588
 10
163.8656968671538
 20
6.199547488984814
 30
0.0
 10
163.5548963090804
 20
6.240551988406198
 30
0.0
 10
162.3650797690599
 20
6.39708729611415
 30
0.0
 10
160.6280263290887
 20
6.623330919868529
 30
0.0
 10
159.2015009580146
 20
6.806450551508103
 30
0.0
 10
158.6542903560708
 20
6.876333988544495
 30
0.0
  0
LINE
  5
126
330
1F
100
AcDbEntity
  8
0
  6
Continuous
 62
     7
370
    25
100
AcDbLine
 10
163.8656968672
 20
6.199547489
 30
0.0
 11
163.4458298811
 21
2.8586102028
 31
0.0
  0
LINE
  5
127
330
1F
100
AcDbEntity
  8
0
  6
Continuous
 62
     7
370
    25
100
AcDbLine
 10
163.4458298811
 20
2.8586102028
 30
0.0
 11
164.9341230161
 21
2.6715713186
 31
0.0
  0
LINE
  5
128
330
1F
100
AcDbEntity
  8
0
  6
Continuous
 62
     7
370
    25
100
AcDbLine
 10
165.3527263087
 20
6.0024530721
 30
0.0
 11
164.9341230161
 21
2.6715713186
 31
0.0
  0
SPLINE
  5
129
330
1F
100
AcDbEntity
  8
0
  6
Continuous
 62
     7
370
    25
100
AcDbSpline
210
0.0
220
0.0
230
1.0
 70
     8
 71
     3
 72
    11
 73
     7
 74
     0
 42
0.00000001
 43
0.00000001
 40
0.0833401298283693
 40
0.0833401298283693
 40
0.0833401298283693
 40
0.0833401298283693
 40
0.0835323726867181
 40
0.089410044022173
 40
0.095440679275495
 40
0.0958205155938386
 40
0.0958205155938386
 40
0.0958205155938386
 40
0.0958205155938386
 10
170.5584566619591
 20
5.298182256095333
 30
0.0
 10
170.5317353074597
 20
5.301854506651622
 30
0.0
 10
169.6880257465147
 20
5.417772253610512
 30
0.0
 10
168.0058003883526
 20
5.646920698606436
 30
0.0
 10
166.2970902713122
 20
5.876625902356312
 30
0.0
 10
165.4055526051968
 20
5.995417963369634
 30
0.0
 10
165.352726308689
 20
6.002453072231518
 30
0.0
  0
LINE
  5
12A
330
1F
100
AcDbEntity
  8
0
  6
Continuous
 62
     7
370
    25
100
AcDbLine
 10
170.558456662
 20
5.2981822561
 30
0.0
 11
170.1199412838
 21
1.956444879
 31
0.0
  0
LINE
  5
12B
330
1F
100
AcDbEntity
  8
0
  6
Continuous
 62
     7
370
    25
100
AcDbLine
 10
170.1199412838
 20
1.956444879
 30
0.0
 11
171.6071909585
 21
1.7612823692
 31
0.0
  0
LINE
  5
12C
330
1F
100
AcDbEntity
  8
0
  6
Continuous
 62
     7
370
    25
100
AcDbLine
 10
172.0443897141
 20
5.0929863313
 30
0.0
 11
171.6071909585
 21
1.7612823692
 31
0.0
  0
SPLINE
  5
12D
330
1F
100
AcDbEntity
  8
0
  6
Continuous
 62
     7
370
    25
100
AcDbSpline
210
0.0
220
0.0
230
1.0
 70
     8
 71
     3
 72
    34
 73
    30
 74
     0
 42
0.00000001
 43
0.00000001
 40
0.0
 40
0.0
 40
0.0
 40
0.0
 40
0.0001221644111554
 40
0.0004880954305667
 40
0.0010973937121494
 40
0.0019498965338015
 40
0.0030441617556063
 40
0.0043790660721375
 40
0.0059541290929055
 40
0.0077663049323952
 40
0.0098149534343986
 40
0.0120975117753149
 40
0.0146114181108958
 40
0.0173541116067336
 40
0.0203230324655821
 40
0.0235145818664001
 40
0.026926607934443
 40
0.0305545539098798
 40
0.0343949788266533
 40
0.0384440678439601
 40
0.0426979756621779
 40
0.0471519330672693
 40
0.051801130572957
 40
0.0566417726908708
 40
0.0616684264720724
 40
0.0668764842965997
 40
0.0722600329447714
 40
0.0778135054956683
 40
0.0797763672175576
 40
0.0797763672175576
 40
0.0797763672175576
 40
0.0797763672175576
 10
205.233545241429
 20
-0.0000000000000176
 30
0.0
 10
205.2335452399306
 20
0.0028761870420378
 30
0.0
 10
205.1249265054422
 20
0.0143676420950466
 30
0.0
 10
205.0127566544356
 20
0.0398916441828614
 30
0.0
 10
204.7373656422353
 20
0.082972766209127
 30
0.0
 10
204.393694826905
 20
0.1424940223868484
 30
0.0
 10
203.9358022616
 20
0.2191474190857436
 30
0.0
 10
203.3831194623775
 20
0.3120023361617688
 30
0.0
 10
202.7291886558632
 20
0.4213591242909098
 30
0.0
 10
201.9770507873783
 20
0.5467703199888789
 30
0.0
 10
201.1266538077577
 20
0.6876903493785429
 30
0.0
 10
200.1790447759441
 20
0.8438093532681239
 30
0.0
 10
199.1351588117822
 20
1.014701759454791
 30
0.0
 10
197.9960493116949
 20
1.199954119308327
 30
0.0
 10
196.7628838331231
 20
1.399169002353775
 30
0.0
 10
195.4367538274237
 20
1.611765541349802
 30
0.0
 10
194.0190101344464
 20
1.837025147904334
 30
0.0
 10
192.5109873264193
 20
2.074247495452291
 30
0.0
 10
190.9144203080089
 20
2.323785308248247
 30
0.0
 10
189.2305459524732
 20
2.583434856806236
 30
0.0
 10
187.4613070314003
 20
2.854323851037365
 30
0.0
 10
185.6082461363877
 20
3.134049532817209
 30
0.0
 10
183.6734510380535
 20
3.42383355296213
 30
0.0
 10
181.6585668782897
 20
3.721329297673963
 30
0.0
 10
179.5656235965855
 20
4.026942472273398
 30
0.0
 10
177.3966835172455
 20
4.339260208048564
 30
0.0
 10
175.1540465031432
 20
4.658363514997127
 30
0.0
 10
173.3616958531368
 20
4.909869516260501
 30
0.0
 10
172.3171750369803
 20
5.055141093194953
 30
0.0
 10
172.0443897140462
 20
5.092986331115014
 30
0.0
  0
SPLINE
  5
12E
330
1F
100
AcDbEntity
  8
0
  6
Continuous
 62
     7
370
    25
100
AcDbSpline
210
0.0
220
0.0
230
1.0
 70
     8
 71
     3
 72
    34
 73
    30
 74
     0
 42
0.00000001
 43
0.00000001
 40
0.0
 40
0.0
 40
0.0
 40
0.0
 40
0.0001221644111554
 40
0.0004880954305667
 40
0.0010973937121494
 40
0.0019498965338015
 40
0.0030441617556063
 40
0.0043790660721375
 40
0.0059541290929055
 40
0.0077663049323952
 40
0.0098149534343986
 40
0.0120975117753149
 40
0.0146114181108958
 40
0.0173541116067336
 40
0.0203230324655821
 40
0.0235145818664001
 40
0.026926607934443
 40
0.0305545539098798
 40
0.0343949788266533
 40
0.0384440678439601
 40
0.0426979756621779
 40
0.0471519330672693
 40
0.051801130572957
 40
0.0566417726908708
 40
0.0616684264720724
 40
0.0668764842965997
 40
0.0722600329447714
 40
0.0778135054956683
 40
0.0797763672175576
 40
0.0797763672175576
 40
0.0797763672175576
 40
0.0797763672175576
 10
205.233545241429
 20
0.0000000000000525
 30
0.0
 10
205.2335452399306
 20
-0.0028761870420029
 30
0.0
 10
205.1249265054422
 20
-0.0143676420950117
 30
0.0
 10
205.0127566544356
 20
-0.0398916441828265
 30
0.0
 10
204.7373656422353
 20
-0.082972766209092
 30
0.0
 10
204.393694826905
 20
-0.1424940223868135
 30
0.0
 10
203.9358022616
 20
-0.2191474190857087
 30
0.0
 10
203.3831194623775
 20
-0.3120023361617339
 30
0.0
 10
202.7291886558632
 20
-0.4213591242908749
 30
0.0
 10
201.9770507873783
 20
-0.5467703199888441
 30
0.0
 10
201.1266538077577
 20
-0.687690349378508
 30
0.0
 10
200.1790447759441
 20
-0.843809353268089
 30
0.0
 10
199.1351588117822
 20
-1.014701759454756
 30
0.0
 10
197.9960493116949
 20
-1.199954119308292
 30
0.0
 10
196.7628838331231
 20
-1.39916900235374
 30
0.0
 10
195.4367538274237
 20
-1.611765541349767
 30
0.0
 10
194.0190101344464
 20
-1.837025147904299
 30
0.0
 10
192.5109873264193
 20
-2.074247495452256
 30
0.0
 10
190.9144203080089
 20
-2.323785308248212
 30
0.0
 10
189.2305459524732
 20
-2.583434856806202
 30
0.0
 10
187.4613070314003
 20
-2.85432385103733
 30
0.0
 10
185.6082461363877
 20
-3.134049532817174
 30
0.0
 10
183.6734510380535
 20
-3.423833552962095
 30
0.0
 10
181.6585668782897
 20
-3.721329297673928
 30
0.0
 10
179.5656235965855
 20
-4.026942472273363
 30
0.0
 10
177.3966835172455
 20
-4.339260208048528
 30
0.0
 10
175.1540465031432
 20
-4.658363514997092
 30
0.0
 10
173.3616958531368
 20
-4.909869516260464
 30
0.0
 10
172.3171750369803
 20
-5.055141093194917
 30
0.0
 10
172.0443897140462
 20
-5.092986331114978
 30
0.0
  0
LINE
  5
12F
330
1F
100
AcDbEntity
  8
0
  6
Continuous
 62
     7
370
    25
100
AcDbLine
 10
172.0443897141
 20
-5.0929863313
 30
0.0
 11
171.6071909585
 21
-1.7612823692
 31
0.0
  0
LINE
  5
130
330
1F
100
AcDbEntity
  8
0
  6
Continuous
 62
     7
370
    25
100
AcDbLine
 10
170.1199412838
 20
-1.956444879
 30
0.0
 11
171.6071909585
 21
-1.7612823692
 31
0.0
  0
LINE
  5
131
330
1F
100
AcDbEntity
  8
0
  6
Continuous
 62
     7
370
    25
100
AcDbLine
 10
170.558456662
 20
-5.2981822561
 30
0.0
 11
170.1199412838
 21
-1.956444879
 31
0.0
  0
SPLINE
  5
132
330
1F
100
AcDbEntity
  8
0
  6
Continuous
 62
     7
370
    25
100
AcDbSpline
210
0.0
220
0.0
230
1.0
 70
     8
 71
     3
 72
    11
 73
     7
 74
     0
 42
0.00000001
 43
0.00000001
 40
0.0833401298283693
 40
0.0833401298283693
 40
0.0833401298283693
 40
0.0833401298283693
 40
0.0835323726867181
 40
0.089410044022173
 40
0.095440679275495
 40
0.0958205155938386
 40
0.0958205155938386
 40
0.0958205155938386
 40
0.0958205155938386
 10
170.5584566619591
 20
-5.298182256095298
 30
0.0
 10
170.5317353074597
 20
-5.301854506651587
 30
0.0
 10
169.6880257465147
 20
-5.417772253610476
 30
0.0
 10
168.0058003883526
 20
-5.6469206986064
 30
0.0
 10
166.2970902713122
 20
-5.876625902356277
 30
0.0
 10
165.4055526051968
 20
-5.995417963369599
 30
0.0
 10
165.352726308689
 20
-6.002453072231482
 30
0.0
  0
LINE
  5
133
330
1F
100
AcDbEntity
  8
0
  6
Continuous
 62
     7
370
    25
100
AcDbLine
 10
165.3527263087
 20
-6.0024530721
 30
0.0
 11
164.9341230161
 21
-2.6715713186
 31
0.0
  0
LINE
  5
134
330
1F
100
AcDbEntity
  8
0
  6
Continuous
 62
     7
370
    25
100
AcDbLine
 10
163.4458298811
 20
-2.8586102028
 30
0.0
 11
164.9341230161
 21
-2.6715713186
 31
0.0
  0
LINE
  5
135
330
1F
100
AcDbEntity
  8
0
  6
Continuous
 62
     7
370
    25
100
AcDbLine
 10
163.8656968865
 20
-6.1995474866
 30
0.0
 11
163.4458298811
 21
-2.8586102028
 31
0.0
  0
SPLINE
  5
136
330
1F
100
AcDbEntity
  8
0
  6
Continuous
 62
     7
370
    25
100
AcDbSpline
210
0.0
220
0.0
230
1.0
 70
     8
 71
     3
 72
    10
 73
     6
 74
     0
 42
0.00000001
 43
0.00000001
 40
0.0993842784358714
 40
0.0993842784358714
 40
0.0993842784358714
 40
0.0993842784358714
 40
0.1016186621989038
 40
0.1079376069332799
 40
0.111869451125588
 40
0.111869451125588
 40
0.111869451125588
 40
0.111869451125588
 10
163.865696886469
 20
-6.199547486436475
 30
0.0
 10
163.5548963219578
 20
-6.240551986711968
 30
0.0
 10
162.3650797754997
 20
-6.397087295275353
 30
0.0
 10
160.6280263290886
 20
-6.623330919868495
 30
0.0
 10
159.2015009580146
 20
-6.80645055150807
 30
0.0
 10
158.6542903560708
 20
-6.876333988544463
 30
0.0
  0
LINE
  5
137
330
1F
100
AcDbEntity
  8
0
  6
Continuous
 62
     7
370
    25
100
AcDbLine
 10
158.6542903561
 20
-6.8763339885
 30
0.0
 11
158.253917656
 21
-3.5463954639
 31
0.0
  0
LINE
  5
138
330
1F
100
AcDbEntity
  8
0
  6
Continuous
 62
     7
370
    25
100
AcDbLine
 10
156.7646437092
 20
-3.7254572174
 30
0.0
 11
158.253917656
 21
-3.5463954639
 31
0.0
  0
LINE
  5
139
330
1F
100
AcDbEntity
  8
0
  6
Continuous
 62
     7
370
    25
100
AcDbLine
 10
157.1662320958
 20
-7.0655067243
 30
0.0
 11
156.7646437092
 21
-3.7254572174
 31
0.0
  0
SPLINE
  5
13A
330
1F
100
AcDbEntity
  8
0
  6
Continuous
 62
     7
370
    25
100
AcDbSpline
210
0.0
220
0.0
230
1.0
 70
     8
 71
     3
 72
    10
 73
     6
 74
     0
 42
0.00000001
 43
0.00000001
 40
0.1154332143409494
 40
0.1154332143409494
 40
0.1154332143409494
 40
0.1154332143409494
 40
0.1209727662677353
 40
0.1276760977527749
 40
0.1279181638139389
 40
0.1279181638139389
 40
0.1279181638139389
 40
0.1279181638139389
 10
157.1662320958054
 20
-7.065506724190552
 30
0.0
 10
156.3951593023149
 20
-7.1630917768985
 30
0.0
 10
154.6908347165689
 20
-7.377278413605744
 30
0.0
 10
152.9523644594921
 20
-7.592111810076858
 30
0.0
 10
151.9851098927021
 20
-7.710473965427002
 30
0.0
 10
151.9513982603069
 20
-7.714597813766788
 30
0.0
  0
LINE
  5
13B
330
1F
100
AcDbEntity
  8
0
  6
Continuous
 62
     7
370
    25
100
AcDbLine
 10
151.9513982603
 20
-7.7145978137
 30
0.0
 11
151.5690330898
 21
-4.3857267369
 31
0.0
  0
LINE
  5
13C
330
1F
100
AcDbEntity
  8
0
  6
Continuous
 62
     7
370
    25
100
AcDbLine
 10
150.0788314253
 20
-4.5568962416
 30
0.0
 11
151.5690330898
 21
-4.3857267369
 31
0.0
  0
LINE
  5
13D
330
1F
100
AcDbEntity
  8
0
  6
Continuous
 62
     7
370
    25
100
AcDbLine
 10
150.4623525396
 20
-7.8958309641
 30
0.0
 11
150.0788314253
 21
-4.5568962416
 31
0.0
  0
SPLINE
  5
13E
330
1F
100
AcDbEntity
  8
0
  6
Continuous
 62
     7
370
    25
100
AcDbSpline
210
0.0
220
0.0
230
1.0
 70
     8
 71
     3
 72
    10
 73
     6
 74
     0
 42
0.00000001
 43
0.00000001
 40
0.1314819262861742
 40
0.1314819262861742
 40
0.1314819262861742
 40
0.1314819262861742
 40
0.1344944392438565
 40
0.1414203901385283
 40
0.1439671275528134
 40
0.1439671275528134
 40
0.1439671275528134
 40
0.1439671275528134
 10
150.4623525395866
 20
-7.895830964083363
 30
0.0
 10
150.0427492667056
 20
-7.94664375710534
 30
0.0
 10
148.6583671274081
 20
-8.113573340471678
 30
0.0
 10
146.9188889574179
 20
-8.320386262402037
 30
0.0
 10
145.5988772646677
 20
-8.475204761746506
 30
0.0
 10
145.2439735152362
 20
-8.516674714395261
 30
0.0
  0
LINE
  5
13F
330
1F
100
AcDbEntity
  8
0
  6
Continuous
 62
     7
370
    25
100
AcDbLine
 10
145.2439735153
 20
-8.5166747145
 30
0.0
 11
144.8799272124
 21
-5.1890266613
 31
0.0
  0
LINE
  5
140
330
1F
100
AcDbEntity
  8
0
  6
Continuous
 62
     7
370
    25
100
AcDbLine
 10
143.388823782
 20
-5.3521540961
 30
0.0
 11
144.8799272124
 21
-5.1890266613
 31
0.0
  0
LINE
  5
141
330
1F
100
AcDbEntity
  8
0
  6
Continuous
 62
     7
370
    25
100
AcDbLine
 10
143.753970718
 20
-8.6898627363
 30
0.0
 11
143.388823782
 21
-5.3521540961
 31
0.0
  0
SPLINE
  5
142
330
1F
100
AcDbEntity
  8
0
  6
Continuous
 62
     7
370
    25
100
AcDbSpline
210
0.0
220
0.0
230
1.0
 70
     8
 71
     3
 72
    10
 73
     6
 74
     0
 42
0.00000001
 43
0.00000001
 40
0.1475308898210657
 40
0.1475308898210657
 40
0.1475308898210657
 40
0.1475308898210657
 40
0.1484480050854347
 40
0.1555698338519088
 40
0.160014088483988
 40
0.160014088483988
 40
0.160014088483988
 40
0.160014088483988
 10
143.7539707179673
 20
-8.689862736303782
 30
0.0
 10
143.6261469058316
 20
-8.704641092078399
 30
0.0
 10
142.5056909901403
 20
-8.834003432137886
 30
0.0
 10
140.7655228494185
 20
-9.032465306182823
 30
0.0
 10
139.1528336239199
 20
-9.2130884790137
 30
0.0
 10
138.5331037140105
 20
-9.281989837715553
 30
0.0
  0
LINE
  5
143
330
1F
100
AcDbEntity
  8
0
  6
Continuous
 62
     7
370
    25
100
AcDbLine
 10
138.533103714
 20
-9.2819898377
 30
0.0
 11
138.188045279
 21
-5.955756744
 31
0.0
  0
LINE
  5
144
330
1F
100
AcDbEntity
  8
0
  6
Continuous
 62
     7
370
    25
100
AcDbLine
 10
136.69605197
 20
-6.1105338933
 30
0.0
 11
138.188045279
 21
-5.955756744
 31
0.0
  0
LINE
  5
145
330
1F
100
AcDbEntity
  8
0
  6
Continuous
 62
     7
370
    25
100
AcDbLine
 10
137.0421471436
 20
-9.446760756
 30
0.0
 11
136.69605197
 21
-6.1105338933
 31
0.0
  0
SPLINE
  5
146
330
1F
100
AcDbEntity
  8
0
  6
Continuous
 62
     7
370
    25
100
AcDbSpline
210
0.0
220
0.0
230
1.0
 70
     8
 71
     3
 72
     9
 73
     5
 74
     0
 42
0.00000001
 43
0.00000001
 40
0.1635778496361031
 40
0.1635778496361031
 40
0.1635778496361031
 40
0.1635778496361031
 40
0.170067333673418
 40
0.1760616109741342
 40
0.1760616109741342
 40
0.1760616109741342
 40
0.1760616109741342
 10
137.0421471436279
 20
-9.446760755894973
 30
0.0
 10
136.1370877767814
 20
-9.546174610886633
 30
0.0
 10
134.3958032012231
 20
-9.735321215764325
 30
0.0
 10
132.6541245336936
 20
-9.920804725681299
 30
0.0
 10
131.8177264476815
 20
-10.00888641141124
 30
0.0
  0
LINE
  5
147
330
1F
100
AcDbEntity
  8
0
  6
Continuous
 62
     7
370
    25
100
AcDbLine
 10
131.8177264477
 20
-10.0088864114
 30
0.0
 11
131.4923226315
 21
-6.6842754873
 31
0.0
  0
LINE
  5
148
330
1F
100
AcDbEntity
  8
0
  6
Continuous
 62
     7
370
    25
100
AcDbLine
 10
129.9994563853
 20
-6.8303931488
 30
0.0
 11
131.4923226315
 21
-6.6842754873
 31
0.0
  0
LINE
  5
149
330
1F
100
AcDbEntity
  8
0
  6
Continuous
 62
     7
370
    25
100
AcDbLine
 10
130.3258315864
 20
-10.1649285936
 30
0.0
 11
129.9994563853
 21
-6.8303931488
 31
0.0
  0
SPLINE
  5
14A
330
1F
100
AcDbEntity
  8
0
  6
Continuous
 62
     7
370
    25
100
AcDbSpline
210
0.0
220
0.0
230
1.0
 70
     8
 71
     3
 72
     9
 73
     5
 74
     0
 42
0.00000001
 43
0.00000001
 40
0.1796253709798575
 40
0.1796253709798575
 40
0.1796253709798575
 40
0.1796253709798575
 40
0.1848550826164702
 40
0.1921128218683053
 40
0.1921128218683053
 40
0.1921128218683053
 40
0.1921128218683053
 10
130.3258315864007
 20
-10.16492859347585
 30
0.0
 10
129.5960071556296
 20
-10.2407404951617
 30
0.0
 10
127.8531539592396
 20
-10.41997434834417
 30
0.0
 10
126.1098952016518
 20
-10.59522576714637
 30
0.0
 10
125.0965609541294
 20
-10.69559279413265
 30
0.0
  0
LINE
  5
14B
330
1F
100
AcDbEntity
  8
0
  6
Continuous
 62
     7
370
    25
100
AcDbLine
 10
125.0965609541
 20
-10.6955927941
 30
0.0
 11
124.7921157147
 21
-7.3728884489
 31
0.0
  0
LINE
  5
14C
330
1F
100
AcDbEntity
  8
0
  6
Continuous
 62
     7
370
    25
100
AcDbLine
 10
123.2983728016
 20
-7.5097537464
 30
0.0
 11
124.7921157147
 21
-7.3728884489
 31
0.0
  0
LINE
  5
14D
330
1F
100
AcDbEntity
  8
0
  6
Continuous
 62
     7
370
    25
100
AcDbLine
 10
123.6037250663
 20
-10.8423573329
 30
0.0
 11
123.2983728016
 21
-7.5097537464
 31
0.0
  0
SPLINE
  5
14E
330
1F
100
AcDbEntity
  8
0
  6
Continuous
 62
     7
370
    25
100
AcDbSpline
210
0.0
220
0.0
230
1.0
 70
     8
 71
     3
 72
    10
 73
     6
 74
     0
 42
0.00000001
 43
0.00000001
 40
0.1956765808446106
 40
0.1956765808446106
 40
0.1956765808446106
 40
0.1956765808446106
 40
0.1998747389764339
 40
0.2074531849492214
 40
0.2081653034780318
 40
0.2081653034780318
 40
0.2081653034780318
 40
0.2081653034780318
 10
123.6037250663493
 20
-10.842357332856
 30
0.0
 10
123.0174891878337
 20
-10.89955951215299
 30
0.0
 10
121.3728512461631
 20
-11.0586008664068
 30
0.0
 10
119.6283520380602
 20
-11.22296042015287
 30
0.0
 10
118.4700924455082
 20
-11.33008309814052
 30
0.0
 10
118.3706023036478
 20
-11.33926962121651
 30
0.0
  0
LINE
  5
14F
330
1F
100
AcDbEntity
  8
0
  6
Continuous
 62
     7
370
    25
100
AcDbLine
 10
118.3706023037
 20
-11.3392696214
 30
0.0
 11
118.0885971743
 21
-8.0188098334
 31
0.0
  0
LINE
  5
150
330
1F
100
AcDbEntity
  8
0
  6
Continuous
 62
     7
370
    25
100
AcDbLine
 10
116.5939778539
 20
-8.1457471679
 30
0.0
 11
118.0885971743
 21
-8.0188098334
 31
0.0
  0
LINE
  5
151
330
1F
100
AcDbEntity
  8
0
  6
Continuous
 62
     7
370
    25
100
AcDbLine
 10
116.876820035
 20
-11.4760627937
 30
0.0
 11
116.5939778539
 21
-8.1457471679
 31
0.0
  0
SPLINE
  5
152
330
1F
100
AcDbEntity
  8
0
  6
Continuous
 62
     7
370
    25
100
AcDbSpline
210
0.0
220
0.0
230
1.0
 70
     8
 71
     3
 72
    10
 73
     6
 74
     0
 42
0.00000001
 43
0.00000001
 40
0.2117290613858218
 40
0.2117290613858218
 40
0.2117290613858218
 40
0.2117290613858218
 40
0.2150665967816933
 40
0.2227085242052342
 40
0.2242193447810567
 40
0.2242193447810567
 40
0.2242193447810567
 40
0.2242193447810567
 10
116.8768200349866
 20
-11.47606279366253
 30
0.0
 10
116.4104677883177
 20
-11.51840908281291
 30
0.0
 10
114.8762114022044
 20
-11.65659994678156
 30
0.0
 10
113.1304470895419
 20
-11.80946775726393
 30
0.0
 10
111.8509377948229
 20
-11.91878967439807
 30
0.0
 10
111.6397261552667
 20
-11.93676075382812
 30
0.0
  0
LINE
  5
153
330
1F
100
AcDbEntity
  8
0
  6
Continuous
 62
     7
370
    25
100
AcDbLine
 10
111.6397261553
 20
-11.936760754
 30
0.0
 11
111.3819792227
 21
-8.618964974
 31
0.0
  0
LINE
  5
154
330
1F
100
AcDbEntity
  8
0
  6
Continuous
 62
     7
370
    25
100
AcDbLine
 10
109.8864851961
 20
-8.7351442157
 30
0.0
 11
111.3819792227
 21
-8.618964974
 31
0.0
  0
LINE
  5
155
330
1F
100
AcDbEntity
  8
0
  6
Continuous
 62
     7
370
    25
100
AcDbLine
 10
110.144988689
 20
-12.0626786679
 30
0.0
 11
109.8864851961
 21
-8.7351442157
 31
0.0
  0
SPLINE
  5
156
330
1F
100
AcDbEntity
  8
0
  6
Continuous
 62
     7
370
    25
100
AcDbSpline
210
0.0
220
0.0
230
1.0
 70
     8
 71
     3
 72
    10
 73
     6
 74
     0
 42
0.00000001
 43
0.00000001
 40
0.2277831005198855
 40
0.2277831005198855
 40
0.2277831005198855
 40
0.2277831005198855
 40
0.230370632307142
 40
0.2380455706446768
 40
0.2402698732456541
 40
0.2402698732456541
 40
0.2402698732456541
 40
0.2402698732456541
 10
110.1449886890095
 20
-12.06267866790503
 30
0.0
 10
109.7832022515239
 20
-12.0928474031608
 30
0.0
 10
108.3482384398657
 20
-12.21161013149618
 30
0.0
 10
106.601898569791
 20
-12.35173173938469
 30
0.0
 10
105.2171772917993
 20
-12.45948838447387
 30
0.0
 10
104.9060249320589
 20
-12.48352659626241
 30
0.0
  0
LINE
  5
157
330
1F
100
AcDbEntity
  8
0
  6
Continuous
 62
     7
370
    25
100
AcDbLine
 10
104.9060249321
 20
-12.4835265964
 30
0.0
 11
104.6744367484
 21
-9.1688805749
 31
0.0
  0
LINE
  5
158
330
1F
100
AcDbEntity
  8
0
  6
Continuous
 62
     7
370
    25
100
AcDbLine
 10
103.1780845672
 20
-9.2734279327
 30
0.0
 11
104.6744367484
 21
-9.1688805749
 31
0.0
  0
LINE
  5
159
330
1F
100
AcDbEntity
  8
0
  6
Continuous
 62
     7
370
    25
100
AcDbLine
 10
103.4103454753
 20
-12.5977024381
 30
0.0
 11
103.1780845672
 21
-9.2734279327
 31
0.0
  0
SPLINE
  5
15A
330
1F
100
AcDbEntity
  8
0
  6
Continuous
 62
     7
370
    25
100
AcDbSpline
210
0.0
220
0.0
230
1.0
 70
     8
 71
     3
 72
    10
 73
     6
 74
     0
 42
0.00000001
 43
0.00000001
 40
0.2438336269972698
 40
0.2438336269972698
 40
0.2438336269972698
 40
0.2438336269972698
 40
0.2457255541852033
 40
0.2534031881311994
 40
0.2563280798311244
 40
0.2563280798311244
 40
0.2563280798311244
 40
0.2563280798311244
 10
103.4103454752938
 20
-12.59770243813288
 30
0.0
 10
103.1456511295541
 20
-12.61766099311149
 30
0.0
 10
101.8067493940367
 20
-12.71794099887303
 30
0.0
 10
100.0582786922361
 20
-12.84430655374791
 30
0.0
 10
98.57426139327809
 20
-12.94722899409394
 30
0.0
 10
98.16484632977574
 20
-12.97528612409412
 30
0.0
  0
LINE
  5
15B
330
1F
100
AcDbEntity
  8
0
  6
Continuous
 62
     7
370
    25
100
AcDbLine
 10
98.1648463298
 20
-12.9752861241
 30
0.0
 11
97.962377272
 21
-9.6644864261
 31
0.0
  0
LINE
  5
15C
330
1F
100
AcDbEntity
  8
0
  6
Continuous
 62
     7
370
    25
100
AcDbLine
 10
96.4651742993
 20
-9.7560465635
 30
0.0
 11
97.962377272
 21
-9.6644864261
 31
0.0
  0
LINE
  5
15D
330
1F
100
AcDbEntity
  8
0
  6
Continuous
 62
     7
370
    25
100
AcDbLine
 10
96.6682234742
 20
-13.0763324089
 30
0.0
 11
96.4651742993
 21
-9.7560465635
 31
0.0
  0
SPLINE
  5
15E
330
1F
100
AcDbEntity
  8
0
  6
Continuous
 62
     7
370
    25
100
AcDbSpline
210
0.0
220
0.0
230
1.0
 70
     8
 71
     3
 72
    10
 73
     6
 74
     0
 42
0.00000001
 43
0.00000001
 40
0.2598918310469249
 40
0.2598918310469249
 40
0.2598918310469249
 40
0.2598918310469249
 40
0.2610712062724442
 40
0.2687218374479274
 40
0.2723886038741337
 40
0.2723886038741337
 40
0.2723886038741337
 40
0.2723886038741337
 10
96.66822347418757
 20
-13.07633240890357
 30
0.0
 10
96.50311649121346
 20
-13.08731089583344
 30
0.0
 10
95.26692917032105
 20
-13.16908651538404
 30
0.0
 10
93.51710393912823
 20
-13.28032321550915
 30
0.0
 10
91.93208444885808
 20
-13.37563750686327
 30
0.0
 10
91.4185129467028
 20
-13.4059236150026
 30
0.0
  0
LINE
  5
15F
330
1F
100
AcDbEntity
  8
0
  6
Continuous
 62
     7
370
    25
100
AcDbLine
 10
91.4185129467
 20
-13.405923615
 30
0.0
 11
91.2478830167
 21
-10.0997418524
 31
0.0
  0
LINE
  5
160
330
1F
100
AcDbEntity
  8
0
  6
Continuous
 62
     7
370
    25
100
AcDbLine
 10
89.7498766796
 20
-10.1770530031
 30
0.0
 11
91.2478830167
 21
-10.0997418524
 31
0.0
  0
LINE
  5
161
330
1F
100
AcDbEntity
  8
0
  6
Continuous
 62
     7
370
    25
100
AcDbLine
 10
89.9209857721
 20
-13.4925191768
 30
0.0
 11
89.7498766796
 21
-10.1770530031
 31
0.0
  0
SPLINE
  5
162
330
1F
100
AcDbEntity
  8
0
  6
Continuous
 62
     7
370
    25
100
AcDbSpline
210
0.0
220
0.0
230
1.0
 70
     8
 71
     3
 72
    10
 73
     6
 74
     0
 42
0.00000001
 43
0.00000001
 40
0.2759523516360233
 40
0.2759523516360233
 40
0.2759523516360233
 40
0.2759523516360233
 40
0.2763478174214306
 40
0.2839409045468007
 40
0.2884522074754602
 40
0.2884522074754602
 40
0.2884522074754602
 40
0.2884522074754602
 10
89.92098577213663
 20
-13.49251917679778
 30
0.0
 10
89.86558902446119
 20
-13.49565819166831
 30
0.0
 10
88.74654628643516
 20
-13.55892172771668
 30
0.0
 10
86.99529563818224
 20
-13.65328539506017
 30
0.0
 10
85.299103398082
 20
-13.73792712831262
 30
0.0
 10
84.66688437593126
 20
-13.76846351394003
 30
0.0
  0
LINE
  5
163
330
1F
100
AcDbEntity
  8
0
  6
Continuous
 62
     7
370
    25
100
AcDbLine
 10
84.6668843759
 20
-13.7684635139
 30
0.0
 11
84.5317059108
 21
-10.4679338963
 31
0.0
  0
LINE
  5
164
330
1F
100
AcDbEntity
  8
0
  6
Continuous
 62
     7
370
    25
100
AcDbLine
 10
83.0329624125
 20
-10.5293173314
 30
0.0
 11
84.5317059108
 21
-10.4679338963
 31
0.0
  0
LINE
  5
165
330
1F
100
AcDbEntity
  8
0
  6
Continuous
 62
     7
370
    25
100
AcDbLine
 10
83.1685118522
 20
-13.8389046984
 30
0.0
 11
83.0329624125
 21
-10.5293173314
 31
0.0
  0
SPLINE
  5
166
330
1F
100
AcDbEntity
  8
0
  6
Continuous
 62
     7
370
    25
100
AcDbSpline
210
0.0
220
0.0
230
1.0
 70
     8
 71
     3
 72
     9
 73
     5
 74
     0
 42
0.00000001
 43
0.00000001
 40
0.2920159517333304
 40
0.2920159517333304
 40
0.2920159517333304
 40
0.2920159517333304
 40
0.2990016171871945
 40
0.3045170200432538
 40
0.3045170200432538
 40
0.3045170200432538
 40
0.3045170200432538
 10
83.16851185216218
 20
-13.83890469833803
 30
0.0
 10
82.18941360873113
 20
-13.88365007156057
 30
0.0
 10
80.4370783809564
 20
-13.95917922301416
 30
0.0
 10
78.68441424191009
 20
-14.0266136095693
 30
0.0
 10
77.91108635045858
 20
-14.05464843166779
 30
0.0
  0
LINE
  5
167
330
1F
100
AcDbEntity
  8
0
  6
Continuous
 62
     7
370
    25
100
AcDbLine
 10
77.9110863505
 20
-14.0546484317
 30
0.0
 11
77.8157987595
 21
-10.7611271685
 31
0.0
  0
LINE
  5
168
330
1F
100
AcDbEntity
  8
0
  6
Continuous
 62
     7
370
    25
100
AcDbLine
 10
76.3164261537
 20
-10.804506759
 30
0.0
 11
77.8157987595
 21
-10.7611271685
 31
0.0
  0
LINE
  5
169
330
1F
100
AcDbEntity
  8
0
  6
Continuous
 62
     7
370
    25
100
AcDbLine
 10
76.4119677497
 20
-14.1068074569
 30
0.0
 11
76.3164261537
 21
-10.804506759
 31
0.0
  0
SPLINE
  5
16A
330
1F
100
AcDbEntity
  8
0
  6
Continuous
 62
     7
370
    25
100
AcDbSpline
210
0.0
220
0.0
230
1.0
 70
     8
 71
     3
 72
     9
 73
     5
 74
     0
 42
0.00000001
 43
0.00000001
 40
0.3080807597794285
 40
0.3080807597794285
 40
0.3080807597794285
 40
0.3080807597794285
 40
0.313845140813184
 40
0.320585785781647
 40
0.320585785781647
 40
0.320585785781647
 40
0.320585785781647
 10
76.41196774971785
 20
-14.10680745683962
 30
0.0
 10
75.60364762563037
 20
-14.13374143438417
 30
0.0
 10
73.8499694955503
 20
-14.18799434284385
 30
0.0
 10
72.0960335370598
 20
-14.23325748307417
 30
0.0
 10
71.15053467427086
 20
-14.25474961714233
 30
0.0
  0
LINE
  5
16B
330
1F
100
AcDbEntity
  8
0
  6
Continuous
 62
     7
370
    25
100
AcDbLine
 10
71.1505346743
 20
-14.2547496171
 30
0.0
 11
71.0998091689
 21
-10.9698777765
 31
0.0
  0
LINE
  5
16C
330
1F
100
AcDbEntity
  8
0
  6
Continuous
 62
     7
370
    25
100
AcDbLine
 10
69.599987982
 20
-10.9930382502
 30
0.0
 11
71.0998091689
 21
-10.9698777765
 31
0.0
  0
LINE
  5
16D
330
1F
100
AcDbEntity
  8
0
  6
Continuous
 62
     7
370
    25
100
AcDbLine
 10
69.650844251
 20
-14.2863780534
 30
0.0
 11
69.599987982
 21
-10.9930382502
 31
0.0
  0
SPLINE
  5
16E
330
1F
100
AcDbEntity
  8
0
  6
Continuous
 62
     7
370
    25
100
AcDbSpline
210
0.0
220
0.0
230
1.0
 70
     8
 71
     3
 72
    10
 73
     6
 74
     0
 42
0.00000001
 43
0.00000001
 40
0.324149520056429
 40
0.324149520056429
 40
0.324149520056429
 40
0.324149520056429
 40
0.3284146888766261
 40
0.3355794200055763
 40
0.3366623331844358
 40
0.3366623331844358
 40
0.3366623331844358
 40
0.3366623331844358
 10
69.65084425104696
 20
-14.28637805340933
 30
0.0
 10
69.05253454971717
 20
-14.29801040134517
 30
0.0
 10
67.44910814946999
 20
-14.32601149855646
 30
0.0
 10
65.69361997060436
 20
-14.34725181688954
 30
0.0
 10
64.53647255455962
 20
-14.35628922321816
 30
0.0
 10
64.38453882253205
 20
-14.3573901863097
 30
0.0
  0
LINE
  5
16F
330
1F
100
AcDbEntity
  8
0
  6
Continuous
 62
     7
370
    25
100
AcDbLine
 10
64.3845388225
 20
-14.3573901864
 30
0.0
 11
64.3845388225
 21
-11.0834314455
 31
0.0
  0
LINE
  5
170
330
1F
100
AcDbEntity
  8
0
  6
Continuous
 62
     7
370
    25
100
AcDbLine
 10
62.8845388225
 20
-11.0834314455
 30
0.0
 11
64.3845388225
 21
-11.0834314455
 31
0.0
  0
LINE
  5
171
330
1F
100
AcDbEntity
  8
0
  6
Continuous
 62
     7
370
    25
100
AcDbLine
 10
62.8845388225
 20
-14.3654738503
 30
0.0
 11
62.8845388225
 21
-11.0834314455
 31
0.0
  0
SPLINE
  5
172
330
1F
100
AcDbEntity
  8
0
  6
Continuous
 62
     7
370
    25
100
AcDbSpline
210
0.0
220
0.0
230
1.0
 70
     8
 71
     3
 72
    45
 73
    41
 74
     0
 42
0.00000001
 43
0.00000001
 40
0.340226060888043
 40
0.340226060888043
 40
0.340226060888043
 40
0.340226060888043
 40
0.3426554603620372
 40
0.3496358818802687
 40
0.3565137931661673
 40
0.3632838141936911
 40
0.3699391250658528
 40
0.376473459678581
 40
0.3828820539761998
 40
0.3891582247132987
 40
0.3952968001174439
 40
0.4012921802385173
 40
0.4071398054105663
 40
0.4128346586304461
 40
0.4183712559523137
 40
0.4237461806217074
 40
0.4289550759649928
 40
0.4339932008284125
 40
0.438857290086031
 40
0.4435432300516247
 40
0.448049163581867
 40
0.4523714566696265
 40
0.4565076834190793
 40
0.460455799996061
 40
0.4642144967586834
 40
0.4677829508078743
 40
0.4711595355017304
 40
0.4743459613390452
 40
0.4773429180064856
 40
0.4801528375079679
 40
0.4827794776064333
 40
0.4852277904842422
 40
0.4875051615673003
 40
0.4896226329976438
 40
0.4915920546376198
 40
0.4934318094862332
 40
0.4951635025681826
 40
0.496813626370786
 40
0.4984141531800557
 40
0.4999997462354963
 40
0.4999997462354963
 40
0.4999997462354963
 40
0.4999997462354963
 10
62.88453882253098
 20
-14.36547385030263
 30
0.0
 10
62.54368485790657
 20
-14.36667701044864
 30
0.0
 10
61.22344520172658
 20
-14.36966203426972
 30
0.0
 10
58.93819177800408
 20
-14.36357190517887
 30
0.0
 10
56.0440765131719
 20
-14.33262777235346
 30
0.0
 10
53.19592903159544
 20
-14.27821868298393
 30
0.0
 10
50.39654049893711
 20
-14.20059346624773
 30
0.0
 10
47.64865539813917
 20
-14.09909993219713
 30
0.0
 10
44.95500996510859
 20
-13.97361957502146
 30
0.0
 10
42.31819990455302
 20
-13.82415009160805
 30
0.0
 10
39.74095791300429
 20
-13.65071449187749
 30
0.0
 10
37.22574478946964
 20
-13.45329744848099
 30
0.0
 10
34.77502892124653
 20
-13.23188205406835
 30
0.0
 10
32.39127645164082
 20
-12.98666013096298
 30
0.0
 10
30.07678763285286
 20
-12.71811405985575
 30
0.0
 10
27.83384079248369
 20
-12.42637543526694
 30
0.0
 10
25.6645981001925
 20
-12.11196514421267
 30
0.0
 10
23.57127961744106
 20
-11.77512736943751
 30
0.0
 10
21.55604356623225
 20
-11.41660836890494
 30
0.0
 10
19.6206733027222
 20
-11.03711649865812
 30
0.0
 10
17.76726961938488
 20
-10.63644845291629
 30
0.0
 10
15.99730227337296
 20
-10.21650303039322
 30
0.0
 10
14.31286452824577
 20
-9.77687844631025
 30
0.0
 10
12.71548458836477
 20
-9.31865903711978
 30
0.0
 10
11.20659773761933
 20
-8.84271922520137
 30
0.0
 10
9.787848591186929
 20
-8.349580005134941
 30
0.0
 10
8.4604545169519
 20
-7.840252339300777
 30
0.0
 10
7.225825837505989
 20
-7.315230271338509
 30
0.0
 10
6.085025470012762
 20
-6.775174325127401
 30
0.0
 10
5.039029590339898
 20
-6.221030409776264
 30
0.0
 10
4.088948282115772
 20
-5.653208254629622
 30
0.0
 10
3.235438562119891
 20
-5.072635233383087
 30
0.0
 10
2.479667991021965
 20
-4.479101550434569
 30
0.0
 10
1.82185514625003
 20
-3.873712741327159
 30
0.0
 10
1.262947424001047
 20
-3.256227525549131
 30
0.0
 10
0.8037377034472066
 20
-2.626924454729893
 30
0.0
 10
0.4447606405049573
 20
-1.98601343279809
 30
0.0
 10
0.187602696633495
 20
-1.333491460083538
 30
0.0
 10
0.032992544101471
 20
-0.6701586624288125
 30
0.0
 10
-0.0010622936391644
 20
-0.2226873729684427
 30
0.0
 10
-0.0010676006559064
 20
0.000000000000853
 30
0.0
  0
SPLINE
  5
173
330
1F
100
AcDbEntity
  8
0
  6
Continuous
 62
     7
370
    25
100
AcDbSpline
210
0.0
220
0.0
230
1.0
 70
     8
 71
     3
 72
    45
 73
    41
 74
     0
 42
0.00000001
 43
0.00000001
 40
0.340226060888043
 40
0.340226060888043
 40
0.340226060888043
 40
0.340226060888043
 40
0.3426554603620372
 40
0.3496358818802687
 40
0.3565137931661673
 40
0.3632838141936911
 40
0.3699391250658528
 40
0.376473459678581
 40
0.3828820539761998
 40
0.3891582247132987
 40
0.3952968001174439
 40
0.4012921802385173
 40
0.4071398054105663
 40
0.4128346586304461
 40
0.4183712559523137
 40
0.4237461806217074
 40
0.4289550759649928
 40
0.4339932008284125
 40
0.438857290086031
 40
0.4435432300516247
 40
0.448049163581867
 40
0.4523714566696265
 40
0.4565076834190793
 40
0.460455799996061
 40
0.4642144967586834
 40
0.4677829508078743
 40
0.4711595355017304
 40
0.4743459613390452
 40
0.4773429180064856
 40
0.4801528375079679
 40
0.4827794776064333
 40
0.4852277904842422
 40
0.4875051615673003
 40
0.4896226329976438
 40
0.4915920546376198
 40
0.4934318094862332
 40
0.4951635025681826
 40
0.496813626370786
 40
0.4984141531800557
 40
0.4999997462354962
 40
0.4999997462354962
 40
0.4999997462354962
 40
0.4999997462354962
 10
62.88453882253098
 20
14.36547385030267
 30
0.0
 10
62.54368485790657
 20
14.36667701044867
 30
0.0
 10
61.22344520172658
 20
14.36966203426975
 30
0.0
 10
58.93819177800408
 20
14.3635719051789
 30
0.0
 10
56.0440765131719
 20
14.3326277723535
 30
0.0
 10
53.19592903159544
 20
14.27821868298397
 30
0.0
 10
50.39654049893711
 20
14.20059346624776
 30
0.0
 10
47.64865539813917
 20
14.09909993219716
 30
0.0
 10
44.95500996510859
 20
13.97361957502149
 30
0.0
 10
42.31819990455302
 20
13.82415009160808
 30
0.0
 10
39.74095791300429
 20
13.65071449187753
 30
0.0
 10
37.22574478946964
 20
13.45329744848102
 30
0.0
 10
34.77502892124653
 20
13.23188205406839
 30
0.0
 10
32.39127645164082
 20
12.98666013096301
 30
0.0
 10
30.07678763285286
 20
12.71811405985579
 30
0.0
 10
27.83384079248369
 20
12.42637543526698
 30
0.0
 10
25.6645981001925
 20
12.11196514421271
 30
0.0
 10
23.57127961744106
 20
11.77512736943754
 30
0.0
 10
21.55604356623225
 20
11.41660836890498
 30
0.0
 10
19.6206733027222
 20
11.03711649865816
 30
0.0
 10
17.76726961938488
 20
10.63644845291632
 30
0.0
 10
15.99730227337296
 20
10.21650303039325
 30
0.0
 10
14.31286452824577
 20
9.776878446310283
 30
0.0
 10
12.71548458836477
 20
9.318659037119815
 30
0.0
 10
11.20659773761933
 20
8.842719225201403
 30
0.0
 10
9.787848591186929
 20
8.349580005134976
 30
0.0
 10
8.4604545169519
 20
7.840252339300812
 30
0.0
 10
7.225825837505989
 20
7.315230271338544
 30
0.0
 10
6.085025470012762
 20
6.775174325127437
 30
0.0
 10
5.039029590339898
 20
6.2210304097763
 30
0.0
 10
4.088948282115772
 20
5.653208254629657
 30
0.0
 10
3.235438562119891
 20
5.072635233383123
 30
0.0
 10
2.479667991021965
 20
4.479101550434605
 30
0.0
 10
1.82185514625003
 20
3.873712741327194
 30
0.0
 10
1.262947424001047
 20
3.256227525549166
 30
0.0
 10
0.8037377034472066
 20
2.626924454729928
 30
0.0
 10
0.4447606405049573
 20
1.986013432798125
 30
0.0
 10
0.187602696633495
 20
1.333491460083573
 30
0.0
 10
0.0329925441014728
 20
0.6701586624288549
 30
0.0
 10
-0.0010622936391632
 20
0.2226873729684931
 30
0.0
 10
-0.0010676006559064
 20
-0.0000000000007948
 30
0.0
  0
LINE
  5
174
330
1F
100
AcDbEntity
  8
0
  6
Continuous
 62
     7
370
    25
100
AcDbLine
 10
62.8845388225
 20
11.0834314455
 30
0.0
 11
62.8845388225
 21
14.3654738503
 31
0.0
  0
LINE
  5
175
330
1F
100
AcDbEntity
  8
0
  6
Continuous
 62
     7
370
    25
100
AcDbLine
 10
62.8845388225
 20
11.0834314455
 30
0.0
 11
64.3845388225
 21
11.0834314455
 31
0.0
  0
LINE
  5
176
330
1F
100
AcDbEntity
  8
0
  6
Continuous
 62
     7
370
    25
100
AcDbLine
 10
64.3845388225
 20
11.0834314455
 30
0.0
 11
64.3845388225
 21
14.3573901864
 31
0.0
  0
SPLINE
  5
177
330
1F
100
AcDbEntity
  8
0
  6
Continuous
 62
     7
370
    25
100
AcDbSpline
210
0.0
220
0.0
230
1.0
 70
     8
 71
     3
 72
    10
 73
     6
 74
     0
 42
0.00000001
 43
0.00000001
 40
0.3241495200564291
 40
0.3241495200564291
 40
0.3241495200564291
 40
0.3241495200564291
 40
0.3284146888766261
 40
0.3355794200055763
 40
0.3366623331844358
 40
0.3366623331844358
 40
0.3366623331844358
 40
0.3366623331844358
 10
69.65084425104693
 20
14.28637805340936
 30
0.0
 10
69.05253454971714
 20
14.29801040134521
 30
0.0
 10
67.44910814946999
 20
14.3260114985565
 30
0.0
 10
65.69361997060436
 20
14.34725181688957
 30
0.0
 10
64.53647255455962
 20
14.3562892232182
 30
0.0
 10
64.38453882253205
 20
14.35739018630974
 30
0.0
  0
LINE
  5
178
330
1F
100
AcDbEntity
  8
0
  6
Continuous
 62
     7
370
    25
100
AcDbLine
 10
69.650844251
 20
14.2863780534
 30
0.0
 11
69.599987982
 21
10.9930382502
 31
0.0
  0
MTEXT
  5
17A
330
1F
100
AcDbEntity
  8
0
  6
Continuous
 62
     7
100
AcDbMText
 10
-0.0010676007
 20
-15.385040242
 30
0.0
 40
4.83362
 41
0.0
 71
     1
 72
     1
  1
SOLIDWORKS Educational Product.
  7
SLDTEXTSTYLE0
 73
     1
 44
1.0
  0
MTEXT
  5
17B
330
1F
100
AcDbEntity
  8
0
  6
Continuous
 62
     7
100
AcDbMText
 10
-0.0010676007
 20
-22.635470242
 30
0.0
 40
4.83362
 41
0.0
 71
     1
 72
     1
  1
For Instructional Use Only.
  7
SLDTEXTSTYLE0
 73
     1
 44
1.0
  0
ENDSEC
  0
SECTION
  2
OBJECTS
  0
DICTIONARY
  5
C
330
0
100
AcDbDictionary
281
     1
  3
ACAD_GROUP
350
D
  3
ACAD_LAYOUT
350
1A
  3
ACAD_MLINESTYLE
350
17
  3
ACAD_PLOTSETTINGS
350
19
  3
ACAD_PLOTSTYLENAME
350
E
  3
ACAD_SCALELIST
350
47
  3
DWGPROPS
350
17C
  0
DICTIONARY
  5
D
102
{ACAD_REACTORS
330
C
102
}
330
C
100
AcDbDictionary
281
     1
  0
DICTIONARY
  5
1A
102
{ACAD_REACTORS
330
C
102
}
330
C
100
AcDbDictionary
281
     1
  3
Layout1
350
1E
  3
Layout2
350
26
  3
Model
350
22
  0
DICTIONARY
  5
17
102
{ACAD_REACTORS
330
C
102
}
330
C
100
AcDbDictionary
281
     1
  3
Standard
350
18
  0
DICTIONARY
  5
19
102
{ACAD_REACTORS
330
C
102
}
330
C
100
AcDbDictionary
281
     1
  0
ACDBDICTIONARYWDFLT
  5
E
102
{ACAD_REACTORS
330
C
102
}
330
C
100
AcDbDictionary
281
     1
  3
Normal
350
F
100
AcDbDictionaryWithDefault
340
F
  0
DICTIONARY
  5
47
102
{ACAD_REACTORS
330
C
102
}
330
C
100
AcDbDictionary
281
     1
  3
A0
350
48
  3
A1
350
49
  3
A2
350
4A
  3
A3
350
4B
  3
A4
350
4C
  3
A5
350
4D
  3
A6
350
4E
  3
A7
350
4F
  3
A8
350
50
  3
A9
350
51
  3
B0
350
52
  3
B1
350
53
  3
B2
350
54
  3
B3
350
55
  3
B4
350
56
  3
B5
350
57
  3
B6
350
58
  0
XRECORD
  5
17C
102
{ACAD_REACTORS
330
C
102
}
330
C
100
AcDbXrecord
280
     1
  1
DWGPROPS COOKIE
  2

  3

  4

  6

  7

  8
z5685332
  9

300
=
301
=
302
=
303
=
304
=
305
=
306
=
307
=
308
=
309
=
 40
0.0
 41
2460755.42171419
 42
2460755.421740058
  1

 90
        0
  0
LAYOUT
  5
1E
102
{ACAD_REACTORS
330
1A
102
}
330
1A
100
AcDbPlotSettings
  1

  2
none_device
  4

  6

 40
0.0
 41
0.0
 42
0.0
 43
0.0
 44
0.0
 45
0.0
 46
0.0
 47
0.0
 48
0.0
 49
0.0
140
0.0
141
0.0
142
1.0
143
1.0
 70
   688
 72
     1
 73
     0
 74
     5
  7

 75
    16
147
1.0
148
0.0
149
0.0
100
AcDbLayout
  1
Layout1
 70
     1
 71
     1
 10
0.0
 20
0.0
 11
420.0
 21
297.0
 12
0.0
 22
0.0
 32
0.0
 14
1.0000000000E+20
 24
1.0000000000E+20
 34
1.0000000000E+20
 15
-1.0000000000E+20
 25
-1.0000000000E+20
 35
-1.0000000000E+20
146
0.0
 13
0.0
 23
0.0
 33
0.0
 16
1.0
 26
0.0
 36
0.0
 17
0.0
 27
1.0
 37
0.0
 76
     0
330
1B
  0
LAYOUT
  5
26
102
{ACAD_REACTORS
330
1A
102
}
330
1A
100
AcDbPlotSettings
  1

  2
none_device
  4

  6

 40
0.0
 41
0.0
 42
0.0
 43
0.0
 44
0.0
 45
0.0
 46
0.0
 47
0.0
 48
0.0
 49
0.0
140
0.0
141
0.0
142
1.0
143
1.0
 70
   688
 72
     1
 73
     0
 74
     5
  7

 75
    16
147
1.0
148
0.0
149
0.0
100
AcDbLayout
  1
Layout2
 70
     1
 71
     2
 10
0.0
 20
0.0
 11
0.0
 21
0.0
 12
0.0
 22
0.0
 32
0.0
 14
0.0
 24
0.0
 34
0.0
 15
0.0
 25
0.0
 35
0.0
146
0.0
 13
0.0
 23
0.0
 33
0.0
 16
1.0
 26
0.0
 36
0.0
 17
0.0
 27
1.0
 37
0.0
 76
     0
330
23
  0
LAYOUT
  5
22
102
{ACAD_REACTORS
330
1A
102
}
330
1A
100
AcDbPlotSettings
  1

  2
none_device
  4
ANSI_A_(11.00_x_8.50_Inches)
  6

 40
6.35
 41
19.05
 42
6.35000508
 43
19.05000254
 44
279.4
 45
215.9
 46
-4.9515636758
 47
88.89999873
 48
0.0
 49
0.0
140
0.0
141
0.0
142
0.0530612251
143
1.0
 70
  1696
 72
     0
 73
     0
 74
     0
  7

 75
     0
147
0.0179189148
148
-1300.4909072572
149
0.0
100
AcDbLayout
  1
Model
 70
     1
 71
     0
 10
0.0
 20
0.0
 11
420.0
 21
297.0
 12
0.0
 22
0.0
 32
0.0
 14
-0.0010676007
 24
-14.3654738503
 34
0.0
 15
205.2335452414
 25
14.3654738503
 35
0.0
146
0.0
 13
0.0
 23
0.0
 33
0.0
 16
1.0
 26
0.0
 36
0.0
 17
0.0
 27
1.0
 37
0.0
 76
     0
330
1F
331
29
  0
MLINESTYLE
  5
18
102
{ACAD_REACTORS
330
17
102
}
330
17
100
AcDbMlineStyle
  2
Standard
 70
     0
  3

 62
   256
 51
90.0
 52
90.0
 71
     2
 49
0.5
 62
   256
  6
BYLAYER
 49
-0.5
 62
   256
  6
BYLAYER
  0
ACDBPLACEHOLDER
  5
F
102
{ACAD_REACTORS
330
E
102
}
330
E
  0
SCALE
  5
48
102
{ACAD_REACTORS
330
47
102
}
330
47
100
AcDbScale
 70
     0
300
1:1
140
1.0
141
1.0
290
     1
  0
SCALE
  5
49
102
{ACAD_REACTORS
330
47
102
}
330
47
100
AcDbScale
 70
     0
300
1:2
140
1.0
141
2.0
290
     0
  0
SCALE
  5
4A
102
{ACAD_REACTORS
330
47
102
}
330
47
100
AcDbScale
 70
     0
300
1:4
140
1.0
141
4.0
290
     0
  0
SCALE
  5
4B
102
{ACAD_REACTORS
330
47
102
}
330
47
100
AcDbScale
 70
     0
300
1:5
140
1.0
141
5.0
290
     0
  0
SCALE
  5
4C
102
{ACAD_REACTORS
330
47
102
}
330
47
100
AcDbScale
 70
     0
300
1:8
140
1.0
141
8.0
290
     0
  0
SCALE
  5
4D
102
{ACAD_REACTORS
330
47
102
}
330
47
100
AcDbScale
 70
     0
300
1:10
140
1.0
141
10.0
290
     0
  0
SCALE
  5
4E
102
{ACAD_REACTORS
330
47
102
}
330
47
100
AcDbScale
 70
     0
300
1:16
140
1.0
141
16.0
290
     0
  0
SCALE
  5
4F
102
{ACAD_REACTORS
330
47
102
}
330
47
100
AcDbScale
 70
     0
300
1:20
140
1.0
141
20.0
290
     0
  0
SCALE
  5
50
102
{ACAD_REACTORS
330
47
102
}
330
47
100
AcDbScale
 70
     0
300
1:30
140
1.0
141
30.0
290
     0
  0
SCALE
  5
51
102
{ACAD_REACTORS
330
47
102
}
330
47
100
AcDbScale
 70
     0
300
1:40
140
1.0
141
40.0
290
     0
  0
SCALE
  5
52
102
{ACAD_REACTORS
330
47
102
}
330
47
100
AcDbScale
 70
     0
300
1:50
140
1.0
141
50.0
290
     0
  0
SCALE
  5
53
102
{ACAD_REACTORS
330
47
102
}
330
47
100
AcDbScale
 70
     0
300
1:100
140
1.0
141
100.0
290
     0
  0
SCALE
  5
54
102
{ACAD_REACTORS
330
47
102
}
330
47
100
AcDbScale
 70
     0
300
2:1
140
2.0
141
1.0
290
     0
  0
SCALE
  5
55
102
{ACAD_REACTORS
330
47
102
}
330
47
100
AcDbScale
 70
     0
300
4:1
140
4.0
141
1.0
290
     0
  0
SCALE
  5
56
102
{ACAD_REACTORS
330
47
102
}
330
47
100
AcDbScale
 70
     0
300
8:1
140
8.0
141
1.0
290
     0
  0
SCALE
  5
57
102
{ACAD_REACTORS
330
47
102
}
330
47
100
AcDbScale
 70
     0
300
10:1
140
10.0
141
1.0
290
     0
  0
SCALE
  5
58
102
{ACAD_REACTORS
330
47
102
}
330
47
100
AcDbScale
 70
     0
300
100:1
140
100.0
141
1.0
290
     0
  0
ENDSEC
  0
EOF
